<?xml version="1.0" encoding="utf-8"?>
<svg data-name="Layer 1" width="1105.04" height="782.74" viewBox="-46.023 -30.071 1209.508 812.811" xmlns="http://www.w3.org/2000/svg">
  <title>medicine</title>
  <path d="M61.08,396.83H162.57V535.16H68.51c-.25,1.42-.49,2.85-.75,4.28h94.81V651c-.17-.05-.32-.11-.48-.17-2.68-1.06-5.34-2.18-8-3.38l-1.7-.77q-4-1.89-8-4c-.93-.49-1.86-1-2.78-1.52A166.42,166.42,0,0,1,101.73,610c-.34-.33-.66-.68-1-1-1.62-1.76-3.21-3.54-4.75-5.36l-1.7-2c-1.82-2.23-3.58-4.52-5.29-6.84-.25-.34-.49-.68-.75-1a148.88,148.88,0,0,1-17.2-31.1c-.14-.33-.26-.69-.39-1Q68.59,556.4,67,551c-.46-1.51-.9-3-1.28-4.57-.14-.46-.26-.91-.37-1.36C59.67,522.9,59,499.87,59,477c0-2.67,0-5.35,0-8,0-9.25.11-18.56.27-27.86,0-2.41.1-4.81.15-7.23q.21-9.21.6-18.42c.06-1.71.14-3.41.23-5.11q0-1.47.15-2.94C60.64,403.88,60.84,400.35,61.08,396.83Z" transform="translate(-47.24 -58.63)" fill="#a6cbf8" opacity="0.1"/>
  <path d="M162.57,242.81H106.9a422,422,0,0,1,29.61-40.76c8.27-10.16,17-20.06,26.06-29.6Z" transform="translate(-47.24 -58.63)" fill="#a6cbf8" opacity="0.1"/>
  <path d="M162.57,247.09V392.55H61.4c0-.42.07-.85.1-1.27.09-1.15.18-2.3.28-3.44.11-1.34.23-2.69.36-4s.27-2.91.42-4.36.29-2.92.46-4.37.32-2.9.5-4.34.34-2.9.53-4.34c.15-1.2.31-2.39.47-3.59.23-1.69.47-3.39.73-5.07,0-.25.07-.51.11-.75a345.9,345.9,0,0,1,7.45-36.52,270.08,270.08,0,0,1,12.55-37,277.75,277.75,0,0,1,18.88-36.36Z" transform="translate(-47.24 -58.63)" fill="#a6cbf8" opacity="0.1"/>
  <path d="M186.8,396.82V535.16H403.57V396.82Zm0,142.61v118.8c1.24.26,2.47.51,3.69.72,1.66.32,3.31.61,5,.86.32.05.65.1,1,.13.66.11,1.34.2,2,.29,1.67.23,3.33.42,5,.57.79.08,1.59.15,2.39.21l1.93.15h0c1.05.08,2.09.14,3.12.17.64,0,1.28.06,1.94.08.5,0,1,0,1.52,0s1.26,0,1.89,0c.86,0,1.72,0,2.57,0H220c.86,0,1.72,0,2.57-.08h.06c.59,0,1.19,0,1.79-.08a4.19,4.19,0,0,0,.5,0c.5,0,1,0,1.48-.07l.35,0,3.35-.26c1.1-.1,2.21-.23,3.33-.35l2.28-.27a199.45,199.45,0,0,0,27.45-5.84c20.22-5.64,40-13.53,60.21-19.31,26.13-7.45,55-11.11,80.25-2V539.43ZM403.57,242.81V58.64a278.67,278.67,0,0,0-70.43,8.26C278.25,80.69,229,110.6,186.8,148.8v94h10.88v4.27H186.8V392.55H403.57V247.08H242.35v-4.27ZM682,180.6c-13.58-.48-27.08-4.78-39.29-11.42-23.35-12.7-42-32.31-62.84-48.86-43.3-34.47-97-55.27-152.09-60.43V242.81H737.23L738,242Zm28.19-5,29.89,32.8V167C730.07,168.24,721.3,171.19,710.23,175.56Zm29.89,512.13V539.43H676.39c-.17-.63-.34-1.27-.54-1.91.19.64.35,1.28.53,1.91H427.82V646.68c2.36,1.75,4.69,3.59,7,5.46h0c2.49,2,4.95,4.11,7.42,6.18l2.49,2.06c1.19,1,2.39,2,3.6,2.94q3.6,2.92,7.27,5.76c1.21,1,2.45,1.9,3.68,2.84a501.22,501.22,0,0,0,61.63,40.31q7.23,4,14.59,7.81c3.27,1.67,6.56,3.33,9.86,4.94q7.44,3.63,15,7h0a550.84,550.84,0,0,0,146,42.53q16.79,2.48,33.71,3.9V687.72l1,0ZM427.82,247.08V392.55h312.3V247.08Zm0,149.74V535.16h312.3V396.82Zm336.54-230V213l38.15-41.86Q783.55,168.08,764.36,166.77Zm0,230.05V535.16h303.75V396.82ZM1067,698.71l1.07-159.28H764.36V780a544.73,544.73,0,0,0,58.7-.7h0l.34,0q14-.88,27.87-2.56l.21,0a513.24,513.24,0,0,0,143.2-38.21m132-318.93c-1.14-2.69-2.33-5.36-3.54-8-2.26-5-4.65-9.86-7.11-14.72h-23.7V535.16h59.92C1152.22,496,1142.31,456,1126.71,419.55Zm-34.35,119.88v137c16.88-16.18,31.14-34.69,41.41-55.85,12.35-25.48,18-53.07,18.46-81.17Zm0-182.92v36h21.48A390,390,0,0,0,1092.36,356.51Zm-206-162.6c-1.58-.6-3.16-1.21-4.75-1.8a433.62,433.62,0,0,0-51.31-15.42l-58.38,64.07h0L770.77,242l.75.82H979.3A444.41,444.41,0,0,0,886.36,193.91Zm99.06,53.17H768.62l-4.26,3.9V392.55H801.7l.06,0,0,0h266.39V324A432.8,432.8,0,0,0,985.42,247.08Z" transform="translate(-47.24 -58.63)" fill="#a6cbf8" opacity="0.1"/>
  <path d="M162.57,320.46v72.09H61.4c0-.42.07-.85.1-1.27.09-1.15.18-2.3.28-3.44.11-1.34.23-2.69.36-4s.27-2.91.42-4.36.29-2.92.46-4.37.32-2.9.5-4.34.34-2.9.53-4.34c.15-1.2.31-2.39.47-3.59.23-1.69.47-3.39.73-5.07,0-.25.07-.51.11-.75a345.9,345.9,0,0,1,7.45-36.52Z" transform="translate(-47.24 -58.63)" fill="#a6cbf8" opacity="0.1"/>
  <path d="M61.08,396.83H162.57V535.16H68.51c-.25,1.42-.49,2.85-.75,4.28h94.81V651c-.17-.05-.32-.11-.48-.17-2.68-1.06-5.34-2.18-8-3.38l-1.7-.77q-4-1.89-8-4c-.93-.49-1.86-1-2.78-1.52A166.42,166.42,0,0,1,101.73,610c-.34-.33-.66-.68-1-1-1.62-1.76-3.21-3.54-4.75-5.36l-1.7-2c-1.82-2.23-3.58-4.52-5.29-6.84-.25-.34-.49-.68-.75-1a148.88,148.88,0,0,1-17.2-31.1c-.14-.33-.26-.69-.39-1Q68.59,556.4,67,551c-.46-1.51-.9-3-1.28-4.57-.14-.46-.26-.91-.37-1.36C59.67,522.9,59,499.87,59,477c0-2.67,0-5.35,0-8,0-9.25.11-18.56.27-27.86,0-2.41.1-4.81.15-7.23q.21-9.21.6-18.42c.06-1.71.14-3.41.23-5.11q0-1.47.15-2.94C60.64,403.88,60.84,400.35,61.08,396.83Z" transform="translate(-47.24 -58.63)" fill="#a6cbf8" opacity="0.1"/>
  <polygon points="215.87 209.28 215.87 333.92 139.56 333.92 139.56 209.28 150.44 209.28 150.44 167.08 195.1 167.08 195.1 209.28 215.87 209.28" fill="#a6cbf8" opacity="0.1"/>
  <rect x="139.57" y="338.19" width="76.3" height="138.33" fill="#a6cbf8" opacity="0.1"/>
  <path d="M186.8,539.44h76.31v115a199.11,199.11,0,0,1-27.45,5.83l-2.28.28c-1.12.13-2.23.24-3.33.35s-2.24.19-3.35.26l-.35,0c-.48,0-1,.06-1.47.07l-.51,0c-.6,0-1.2.06-1.8.08h0c-.85.05-1.7.06-2.57.07-.37,0-.72,0-1.09,0-.86,0-1.71,0-2.57,0l-1.89,0c-.51,0-1,0-1.53,0l-1.93-.07c-1,0-2.08-.11-3.12-.18h0l-1.92-.14-2.39-.22c-1.68-.15-3.35-.34-5-.57l-2-.28-1-.14c-1.67-.26-3.32-.54-5-.86-1.23-.21-2.45-.47-3.69-.72Z" transform="translate(-47.24 -58.63)" fill="#a6cbf8" opacity="0.1"/>
  <polygon points="692.89 338.19 692.89 476.53 380.58 476.53 380.58 416.86 546.93 416.86 546.93 452.06 629.96 452.06 629.96 338.19 692.89 338.19" fill="#a6cbf8" opacity="0.1"/>
  <path d="M741.12,687.76l-1,0v90.75q-16.9-1.43-33.7-3.89A550.87,550.87,0,0,1,560.36,732q-20.13-9.06-39.44-19.78a503.26,503.26,0,0,1-61.64-40.31q-7.36-5.64-14.53-11.54c-3.31-2.73-6.6-5.53-9.93-8.25-2.31-1.87-4.64-3.71-7-5.47V539.44H676.37c-.17-.64-.34-1.28-.52-1.91.19.63.37,1.27.54,1.91h63.73V687.7C740.46,687.71,740.79,687.74,741.12,687.76Z" transform="translate(-47.24 -58.63)" fill="#a6cbf8" opacity="0.1"/>
  <path d="M904.22,242.81h-41V230.07H881.6V192.12q2.39.87,4.76,1.79v36.16h17.86Z" transform="translate(-47.24 -58.63)" fill="#a6cbf8" opacity="0.1"/>
  <path d="M1003,392.55H801.72s0,0,.07.05l-.09-.05H764.36V253.2h10.58v103h48.35v-61h39.94V247.09h41v48.15h39.94v61H1003Z" transform="translate(-47.24 -58.63)" fill="#a6cbf8" opacity="0.1"/>
  <path d="M764.36,396.82V535.16H1003V396.82ZM1067.78,698l.33-109.5H1003v-49H764.36V780a544.73,544.73,0,0,0,58.7-.7h0l.34,0q14-.88,27.87-2.56l.21,0a513.24,513.24,0,0,0,143.2-38.21" transform="translate(-47.24 -58.63)" fill="#a6cbf8" opacity="0.1"/>
  <path d="M1096.57,539.44h55.67c-.49,28.09-6.13,55.68-18.47,81.16-10.27,21.17-24.54,39.68-41.4,55.85v-88h4.2Z" transform="translate(-47.24 -58.63)" fill="#a6cbf8" opacity="0.1"/>
  <path d="M1152.27,535.16h-55.7V419.55h30.14C1142.31,456,1152.22,496,1152.27,535.16Z" transform="translate(-47.24 -58.63)" fill="#a6cbf8" opacity="0.1"/>
  <rect x="380.58" y="473.32" width="144.47" height="3.21" fill="#a6cbf8" opacity="0.1"/>
  <rect x="380.58" y="480.8" width="144.47" height="12.3" fill="#a6cbf8" opacity="0.1"/>
  <rect x="380.58" y="533.42" width="144.47" height="19.78" fill="#a6cbf8" opacity="0.1"/>
  <path d="M572.28,652.15v19.78h-113q-7.36-5.62-14.54-11.54c-3.31-2.73-6.59-5.53-9.93-8.24Z" transform="translate(-47.24 -58.63)" fill="#a6cbf8" opacity="0.1"/>
  <path d="M572.28,712.24V732H560.35q-20.11-9.07-39.43-19.79Z" transform="translate(-47.24 -58.63)" fill="#a6cbf8" opacity="0.1"/>
  <rect x="160.05" y="219.09" width="28.44" height="28.44" fill="#a6cbf8" opacity="0.1"/>
  <rect x="160.05" y="285.15" width="28.44" height="28.44" fill="#a6cbf8" opacity="0.1"/>
  <rect x="160.05" y="351.21" width="28.44" height="28.44" fill="#a6cbf8" opacity="0.1"/>
  <rect x="160.05" y="417.26" width="28.44" height="28.44" fill="#a6cbf8" opacity="0.1"/>
  <rect x="160.05" y="483.32" width="28.44" height="28.44" fill="#a6cbf8" opacity="0.1"/>
  <rect x="160.05" y="549.38" width="28.44" height="28.44" fill="#a6cbf8" opacity="0.1"/>
  <path d="M65.24,357v16.27h97.33V357Zm9.7,15.25H67V358h8Zm9.69,0h-8V358h8Zm9.67,0h-8V358h8Zm9.69,0H96V358h8Zm9.68,0h-8V358h8Zm9.69,0h-8V358h8Zm9.69,0h-8V358h8Zm9.68,0h-8V358h8Zm9.68,0h-8V358h8Zm9.68,0h-8V358h8Z" transform="translate(-47.24 -58.63)" fill="#a6cbf8" opacity="0.1"/>
  <path d="M65.24,404.34v16.27h97.33V404.34Zm9.7,15.24H67V405.37h8Zm9.69,0h-8V405.37h8Zm9.67,0h-8V405.37h8Zm9.69,0H96V405.37h8Zm9.68,0h-8V405.37h8Zm9.69,0h-8V405.37h8Zm9.69,0h-8V405.37h8Zm9.68,0h-8V405.37h8Zm9.68,0h-8V405.37h8Zm9.68,0h-8V405.37h8Z" transform="translate(-47.24 -58.63)" fill="#a6cbf8" opacity="0.1"/>
  <path d="M65.24,451.7V468h97.33V451.7Zm9.7,15.24H67V452.72h8Zm9.69,0h-8V452.72h8Zm9.67,0h-8V452.72h8Zm9.69,0H96V452.72h8Zm9.68,0h-8V452.72h8Zm9.69,0h-8V452.72h8Zm9.69,0h-8V452.72h8Zm9.68,0h-8V452.72h8Zm9.68,0h-8V452.72h8Zm9.68,0h-8V452.72h8Z" transform="translate(-47.24 -58.63)" fill="#a6cbf8" opacity="0.1"/>
  <path d="M65.24,499.06v16.25h97.33V499.06Zm9.7,15.24H67V500.07h8Zm9.69,0h-8V500.07h8Zm9.67,0h-8V500.07h8Zm9.69,0H96V500.07h8Zm9.68,0h-8V500.07h8Zm9.69,0h-8V500.07h8Zm9.69,0h-8V500.07h8Zm9.68,0h-8V500.07h8Zm9.68,0h-8V500.07h8Zm9.68,0h-8V500.07h8Z" transform="translate(-47.24 -58.63)" fill="#a6cbf8" opacity="0.1"/>
  <path d="M65.66,546.41c.39,1.53.83,3.06,1.29,4.57v-3.55h8v14.22H70.67c.13.33.26.69.39,1h91.51V546.41Zm19,15.24h-8V547.43h8Zm9.67,0h-8V547.43h8Zm9.69,0H96V547.43h8Zm9.68,0h-8V547.43h8Zm9.69,0h-8V547.43h8Zm9.69,0h-8V547.43h8Zm9.68,0h-8V547.43h8Zm9.68,0h-8V547.43h8Zm9.68,0h-8V547.43h8Z" transform="translate(-47.24 -58.63)" fill="#a6cbf8" opacity="0.1"/>
  <path d="M88.26,593.77c.25.32.49.68.75,1H94.3v6.83c.57.68,1.13,1.36,1.71,2v-8.87h8V609h-3.24c.32.33.63.68,1,1h60.83V593.77ZM113.67,609h-8V594.79h8Zm9.69,0h-8V594.79h8Zm9.69,0h-8V594.79h8Zm9.68,0h-8V594.79h8Zm9.68,0h-8V594.79h8Zm9.68,0h-8V594.79h8Z" transform="translate(-47.24 -58.63)" fill="#a6cbf8" opacity="0.1"/>
  <path d="M141.65,641.12c.91.52,1.84,1,2.78,1.52v-.5h8v4.5l1.7.79v-5.29h8v8.65a2.5,2.5,0,0,0,.48.18v-9.85Z" transform="translate(-47.24 -58.63)" fill="#a6cbf8" opacity="0.1"/>
  <path d="M801.72,392.55h0l.06,0Zm-61.6,295.14v0l1,0ZM675.85,537.52c.19.64.35,1.28.53,1.91h0C676.22,538.8,676.05,538.16,675.85,537.52Zm125.87-145h0l.06,0Zm-604-149.74v4.27h44.67v-4.27ZM740.12,687.69v0l1,0ZM675.85,537.52c.19.64.35,1.28.53,1.91h0C676.22,538.8,676.05,538.16,675.85,537.52Zm125.87-145h0l.06,0Zm-61.6,295.14v0l1,0ZM675.85,537.52c.19.64.35,1.28.53,1.91h0C676.22,538.8,676.05,538.16,675.85,537.52Z" transform="translate(-47.24 -58.63)" fill="#a6cbf8" opacity="0.1"/>
  <path d="M881.39,451v0Z" transform="translate(-47.24 -58.63)" fill="#ffb0b1"/>
  <ellipse cx="654.151" cy="756.505" rx="94.72" ry="15.213" fill="#a6cbf8" opacity="0.1"/>
  <ellipse cx="400.482" cy="754.653" rx="94.72" ry="15.213" fill="#a6cbf8" opacity="0.1" transform="matrix(1, 0, 0, 1, 15.183803207902727, 0.6025562722714994)"/>
  <rect x="740.797" y="342.827" width="28.44" height="28.44" fill="#a6cbf8" opacity="0.1"/>
  <rect x="740.797" y="412.977" width="28.44" height="28.44" fill="#a6cbf8" opacity="0.1"/>
  <rect x="740.797" y="483.117" width="28.44" height="28.44" fill="#a6cbf8" opacity="0.1"/>
  <rect x="740.797" y="553.267" width="28.44" height="28.44" fill="#a6cbf8" opacity="0.1"/>
  <rect x="740.797" y="623.417" width="28.44" height="28.44" fill="#a6cbf8" opacity="0.1"/>
  <g opacity="0.1" transform="matrix(0.972087, 0, 0, 0.972087, -184.840088, -67.066803)"/>
  <path d="M 177.9 473.426 C 178.105 473.678 178.294 473.962 178.491 474.214 L 182.66 474.214 L 182.66 479.596 L 184.008 481.172 L 184.008 474.182 L 190.312 474.182 L 190.312 485.483 L 187.719 485.483 C 187.972 485.743 188.216 486.019 188.507 486.271 L 236.445 486.271 L 236.445 473.426 L 177.9 473.426 Z M 197.964 485.483 L 191.66 485.483 L 191.66 474.23 L 197.964 474.23 L 197.964 485.483 Z M 205.6 485.483 L 199.296 485.483 L 199.296 474.23 L 205.6 474.23 L 205.6 485.483 Z M 213.237 485.483 L 206.932 485.483 L 206.932 474.23 L 213.237 474.23 L 213.237 485.483 Z M 220.865 485.483 L 214.56 485.483 L 214.56 474.23 L 220.865 474.23 L 220.865 485.483 Z M 228.493 485.483 L 222.189 485.483 L 222.189 474.23 L 228.493 474.23 L 228.493 485.483 Z M 236.129 485.483 L 229.825 485.483 L 229.825 474.23 L 236.129 474.23 L 236.129 485.483 Z" fill="#a6cbf8" opacity="0.1"/>
  <path d="M 219.974 510.748 C 220.699 511.158 221.432 511.536 222.165 511.938 L 222.165 511.544 L 228.47 511.544 L 228.47 515.098 C 228.927 515.295 229.36 515.508 229.809 515.713 L 229.809 511.544 L 236.114 511.544 L 236.114 518.368 C 236.234 518.422 236.357 518.467 236.484 518.502 L 236.484 510.748 L 219.974 510.748 Z" fill="#a6cbf8" opacity="0.1"/>
  <ellipse cx="200.864" cy="700.456" rx="76.788" ry="12.333" fill="#a6cbf8" opacity="0.1"/>
  <rect x="198.398" y="464.19" width="4.941" height="111.249" fill="#535461"/>
  <path d="M 234.396 575.108 L 234.081 580.12 L 233.647 587.213 L 233.466 590.16 L 233.025 597.253 L 232.835 600.2 L 232.402 607.292 L 227.414 687.729 C 226.972 694.913 221.017 700.512 213.82 700.511 L 187.916 700.511 C 180.698 700.514 174.732 694.881 174.323 687.674 L 169.334 607.237 L 168.901 600.145 L 168.719 597.197 L 168.27 590.105 L 168.089 587.158 L 167.656 580.065 L 167.34 575.053 C 167.11 570.999 170.325 567.579 174.386 567.559 L 227.358 567.559 C 231.44 567.582 234.659 571.036 234.396 575.108 Z" fill="#3f3d56"/>
  <polygon points="234.081 580.112 233.639 587.189 168.089 587.189 167.648 580.112 234.081 580.112" fill="#9d9cb5"/>
  <polygon points="233.458 590.136 233.025 597.213 168.712 597.213 168.27 590.136 233.458 590.136" fill="#9d9cb5"/>
  <polygon points="232.835 600.168 232.402 607.237 169.334 607.237 168.893 600.168 232.835 600.168" fill="#9d9cb5"/>
  <path d="M 160.138 505.894 C 188.917 526.714 200.904 559.276 200.904 559.276 C 200.904 559.276 166.229 558.086 137.442 537.266 C 108.654 516.446 96.652 483.907 96.652 483.907 C 96.652 483.907 131.326 485.073 160.138 505.894 Z" fill="#a6cbf8"/>
  <path d="M 96.652 483.907 C 96.652 483.907 132.642 503.884 144.187 520.425 C 155.732 536.967 200.872 559.292 200.872 559.292" fill="none" stroke="#535461" stroke-miterlimit="10" stroke-width="2"/>
  <path d="M 178.68 463.953 C 194.347 475.278 200.872 493.001 200.872 493.001 C 200.872 493.001 181.959 492.355 166.332 481.031 C 150.705 469.706 144.14 451.975 144.14 451.975 C 144.14 451.975 163.022 452.621 178.68 463.953 Z" fill="#a6cbf8"/>
  <path d="M 144.14 451.975 C 144.14 451.975 163.731 462.85 170.02 471.85 C 176.308 480.849 200.872 493.001 200.872 493.001" fill="none" stroke="#535461" stroke-miterlimit="10" stroke-width="2"/>
  <path d="M 223.631 492.103 C 205.64 511.875 201.833 537.715 201.833 537.715 C 201.833 537.715 227.201 531.49 245.176 511.709 C 263.152 491.929 266.974 466.097 266.974 466.097 C 266.974 466.097 241.622 472.33 223.631 492.103 Z" fill="#a6cbf8"/>
  <path d="M 266.99 466.105 C 266.99 466.105 243.553 486.374 237.595 500.338 C 231.638 514.302 201.833 537.715 201.833 537.715" fill="none" stroke="#535461" stroke-miterlimit="10" stroke-width="2"/>
  <path d="M 688.778 283.08 L 626.133 283.69 C 623.189 269.194 613.295 231.159 622.205 220.784 C 623.048 212.674 630.126 206.661 638.267 207.14 C 647.976 191.941 664.149 194.223 675.08 203.716 C 686.08 207.511 690.227 214.254 688.778 223.406 C 696.924 230.536 698.428 239.213 694.771 249.089 L 688.778 283.08 Z" fill="#2f2e41"/>
  <path d="M 682.747 321.671 L 637.55 315.413 L 628.512 302.201 C 640.963 293.942 645.37 282.405 639.638 266.739 L 670.927 266.044 C 669.461 279.994 674.075 290.797 686.919 297.334 L 682.747 321.671 Z" fill="#ffb9b9"/>
  <path d="M 626.866 729.332 L 625.137 752.956 C 624.804 757.497 628.55 761.288 633.093 761.013 L 645.228 760.278 C 647.624 760.132 649.3 757.848 648.717 755.518 L 641.981 728.575 L 626.866 729.332 Z" fill="#e6e6e6"/>
  <path d="M 666.152 728.575 L 659.417 755.518 C 658.834 757.848 660.51 760.132 662.906 760.278 L 675.041 761.013 C 679.584 761.288 683.329 757.497 682.998 752.956 L 681.269 729.332 L 666.152 728.575 Z" fill="#e6e6e6"/>
  <polygon points="682.053 732.611 665.676 730.968 649.371 556.694 643.21 730.408 627.12 729.83 600.003 489.245 703.607 489.245 682.053 732.611" fill="#a6cbf8"/>
  <circle cx="657.02" cy="246.576" r="31.291" fill="#ffb9b9"/>
  <path d="M 718.904 494.808 L 592.354 496.198 C 611.135 424.702 622.369 358.289 602.783 312.631 L 634.074 297.334 C 649.162 313.071 665.964 311.449 684.138 295.943 L 714.037 303.592 C 708.917 363.464 711.211 427.59 718.904 494.808 Z" fill="#a6cbf8"/>
  <path d="M 557.588 421.103 L 636.16 452.393 L 653.727 457.559 C 657.041 458.534 660.5 456.553 661.337 453.203 C 662.057 450.326 660.594 447.35 657.878 446.163 L 639.638 440.572 L 584.705 408.587 L 596.178 378.34 L 572.19 365.477 L 557.588 421.103 Z" fill="#ffb9b9"/>
  <path d="M 558.283 364.086 C 573.232 369.918 585.123 379.871 594.44 393.29 L 623.644 350.874 L 602.783 312.631 L 558.283 364.086 Z" fill="#a6cbf8"/>
  <path d="M 692.286 241.503 C 679.586 238.23 667.099 237.782 654.963 241.932 C 647.23 245.676 637.945 245.332 627.62 242.247 L 627.62 211.029 L 683.366 212.516 L 692.286 241.503 Z" fill="#2f2e41"/>
  <path d="M 635.9 384.646 C 630.783 384.652 626.638 388.797 626.632 393.912 L 630.291 470.486 C 630.295 475.603 634.441 479.748 639.558 479.753 L 681.38 479.753 C 686.495 479.748 690.642 475.603 690.647 470.486 L 694.305 393.912 C 694.299 388.797 690.153 384.652 685.038 384.646 L 635.9 384.646 Z" fill="#3f3d56"/>
  <path d="M 754.561 415.318 L 686.075 442.589 L 680.907 444.646 C 680.743 444.711 680.578 444.765 680.404 444.821 L 663.093 449.914 C 660.88 450.563 657.816 447.582 656.023 445.524 C 654.189 443.475 654.128 440.392 655.878 438.272 C 656.117 437.995 656.379 437.742 656.664 437.513 C 657.331 436.994 658.117 436.648 658.951 436.507 L 676.243 433.105 C 676.864 432.983 677.46 432.761 678.008 432.447 L 686.075 427.746 L 727.948 403.367 C 730.354 401.968 731.394 399.035 730.408 396.434 L 722.416 375.355 C 721.402 372.686 722.525 369.681 725.041 368.332 L 738.283 361.236 C 741.52 359.497 745.531 361.246 746.458 364.801 L 757.954 408.588 C 758.684 411.365 757.23 414.253 754.561 415.318 Z" fill="#ffb9b9"/>
  <path d="M 758.538 356.436 C 743.589 362.268 731.7 372.221 722.382 385.641 L 693.177 343.226 L 714.037 303.592 L 758.538 356.436 Z" fill="#a6cbf8"/>
  <path d="M 677.844 274.424 C 664.155 280.118 649.803 279.887 634.863 274.424 C 639.209 267.004 632.712 261.193 629.376 253.702 L 685.16 252.044 C 680.894 258.552 674.599 266.24 677.844 274.424 Z" fill="#fff"/>
  <polygon points="684.569 253.282 683.922 252.636 684.836 251.722 690.299 245.345 690.994 245.941 685.508 252.343 684.569 253.282" fill="#fff"/>
  <rect x="759.944" y="181.205" width="0.915" height="7.142" transform="matrix(0.640184, -0.768221, 0.768221, 0.640184, -0.742446, 717.910828)" fill="#fff"/>
  <rect x="805.185" y="198.723" width="17.885" height="0.914" transform="matrix(0.537001, -0.843582, 0.843582, 0.537001, 76.517967, 846.271545)" fill="#fff"/>
  <rect x="762.917" y="190.237" width="0.914" height="17.885" transform="matrix(0.843662, -0.536875, 0.536875, 0.843662, -119.987648, 508.24472)" fill="#fff"/>
  <path d="M 687.903 426.452 L 687.903 443.02 L 682.136 445.316 C 681.951 445.388 681.768 445.449 681.575 445.51 L 662.251 451.197 C 659.781 451.921 656.361 448.593 654.359 446.297 C 652.313 444.01 652.244 440.569 654.197 438.201 C 654.463 437.894 654.757 437.61 655.075 437.354 C 655.819 436.775 656.696 436.39 657.625 436.232 L 676.929 432.435 C 677.622 432.299 678.287 432.05 678.9 431.698 L 687.903 426.452 Z" fill="#fff"/>
  <path d="M 696.262 367.358 L 692.957 367.358 C 692.957 320.618 683.333 288.046 673.955 288.046 L 673.129 284.74 C 681.539 284.74 686.901 298.297 689.918 309.671 C 694.008 325.088 696.262 345.575 696.262 367.358 Z" fill="#3f3d56"/>
  <path d="M 620.253 355.793 L 616.949 355.793 C 616.949 312.985 626.638 286.393 640.908 286.393 L 640.082 289.698 C 630.211 289.698 620.253 310.134 620.253 355.793 Z" fill="#3f3d56"/>
  <circle cx="694.609" cy="368.184" r="8.261" fill="#3f3d56"/>
  <path d="M 607.035 375.621 L 603.729 375.621 C 603.729 363.775 610.401 354.139 618.601 354.139 L 618.601 357.444 C 612.223 357.444 607.035 365.597 607.035 375.621 Z" fill="#3f3d56"/>
  <path d="M 633.472 375.621 L 630.168 375.621 C 630.168 365.597 624.98 357.444 618.601 357.444 L 618.601 354.139 C 626.801 354.139 633.472 363.775 633.472 375.621 Z" fill="#3f3d56"/>
  <circle cx="631.819" cy="376.446" r="3.305" fill="#3f3d56"/>
  <circle cx="605.382" cy="376.446" r="3.305" fill="#3f3d56"/>
  <path d="M 457.503 265.211 L 399.463 275.04 C 396.493 275.547 393.621 273.724 392.815 270.821 C 388.621 255.687 379.855 235.943 388.366 226.033 C 389.267 217.371 396.825 210.951 405.518 211.462 C 415.887 195.233 433.156 197.669 444.829 207.805 C 456.575 211.858 461.005 219.06 459.456 228.831 C 464.53 233.274 467.191 238.278 467.752 243.77 C 468.29 249.952 466.14 256.066 461.85 260.55 L 457.503 265.211 Z" fill="#2f2e41"/>
  <path d="M 448.479 310.904 L 403.485 308.257 C 407.895 298.136 409.656 288.39 407.897 279.144 L 441.422 279.144 C 441.345 286.243 444.879 298.526 448.479 310.904 Z" fill="#9f616a"/>
  <path d="M 394.319 726.657 L 392.474 751.886 C 392.12 756.733 396.118 760.783 400.97 760.488 L 413.927 759.703 C 416.487 759.549 418.276 757.107 417.654 754.622 L 410.461 725.849 L 394.319 726.657 Z" fill="#e6e6e6"/>
  <path d="M 436.272 725.849 L 429.079 754.622 C 428.457 757.107 430.246 759.549 432.804 759.702 L 445.763 760.488 C 450.615 760.783 454.614 756.733 454.259 751.886 L 452.413 726.657 L 436.272 725.849 Z" fill="#e6e6e6"/>
  <polygon points="453.25 730.16 435.763 728.405 418.352 542.306 411.773 727.804 394.592 727.189 365.635 470.283 476.267 470.283 453.25 730.16" fill="#a6cbf8"/>
  <circle cx="425.544" cy="256.442" r="33.413" fill="#9f616a"/>
  <path d="M 463.201 240.479 C 449.64 238.118 436.306 237.792 423.346 240.789 C 415.09 243.492 405.175 243.242 394.149 241.015 L 394.149 218.484 L 453.677 219.556 L 463.201 240.479 Z" fill="#2f2e41"/>
  <path d="M 447.779 283.25 C 433.162 289.331 417.836 289.084 401.883 283.25 C 406.524 275.327 399.585 269.12 396.024 261.122 L 455.592 259.352 C 451.036 266.3 444.314 274.511 447.779 283.25 Z" fill="#fff"/>
  <rect x="276.123" y="188.448" width="0.915" height="7.627" transform="matrix(0.640179, -0.768226, 0.768226, 0.640179, 69.798019, 348.747528)" fill="#fff"/>
  <rect x="324.402" y="207.183" width="19.1" height="0.915" transform="matrix(0.537001, -0.843582, 0.843582, 0.537001, 97.435135, 444.944824)" fill="#fff"/>
  <rect x="279.296" y="198.091" width="0.915" height="19.1" transform="matrix(0.843664, -0.536872, 0.536872, 0.843664, 50.237133, 249.746048)" fill="#fff"/>
  <path d="M 362.021 408.831 L 336.436 392.951 L 358.255 329.047 C 360.688 322.454 365.35 316.917 371.433 313.394 L 378.783 309.139 L 379.423 373.606 L 362.021 408.831 Z" fill="#a6cbf8"/>
  <path d="M 472.609 439.868 L 468.823 407.446 C 468.621 390.333 471.532 373.789 478.474 358.544 L 482.003 310.904 L 443.186 295.024 C 443.066 295.815 442.966 296.605 442.852 297.396 L 424.659 306.493 L 406.916 302.459 L 407.015 296.788 L 371.725 312.668 C 383.396 366.923 377.03 423.265 356.963 489.814 L 403.452 502.526 L 403.839 480.202 L 445.271 477.244 C 445.698 484.486 446.041 491.6 446.24 498.556 C 469.619 507.163 470.423 507.021 491.724 494.696 C 483.241 476.861 476.524 458.302 472.609 439.868 Z" fill="#a6cbf8"/>
  <polygon points="532.29 400.89 508.471 392.951 470.369 348.595 482.003 310.904 534.937 385.012 532.29 400.89" fill="#a6cbf8"/>
  <path d="M 457.639 435.23 C 458.449 438.791 461.99 441.024 465.553 440.222 L 485.774 435.643 L 482.851 422.736 L 462.631 427.315 C 459.067 428.122 456.833 431.666 457.639 435.23 Z" fill="#e6e6e6"/>
  <path d="M 475.829 420.3 L 487.297 441.473 C 506.587 436.092 523.306 419.131 539.348 399.126 L 534.937 385.011 L 507.588 392.069 L 475.829 420.3 Z" fill="#a6cbf8"/>
  <polygon points="326.29 353.885 348.307 357.817 398.633 429.372 371.898 423.081 326.29 353.885" fill="#e6e6e6"/>
  <path d="M 322.385 353.008 C 320.943 353.028 320.066 354.603 320.806 355.841 C 320.819 355.864 320.833 355.887 320.849 355.909 L 367.889 427.281 C 368.153 427.681 368.557 427.963 369.023 428.073 L 390.909 433.222 C 392.31 433.553 393.543 432.243 393.128 430.863 C 393.07 430.672 392.982 430.492 392.866 430.328 L 341.219 356.889 C 340.936 356.486 340.503 356.211 340.018 356.125 L 322.738 353.04 C 322.622 353.018 322.503 353.008 322.385 353.008 Z" fill="#3f3d56"/>
  <path d="M 351.729 404.038 L 353.037 417.207 L 373.667 415.16 C 378.737 414.657 381.359 408.854 378.39 404.716 C 377.011 402.796 374.714 401.757 372.361 401.991 L 351.729 404.038 Z" fill="#e6e6e6"/>
  <path d="M 333.791 402.513 C 333.852 411.86 341.442 419.407 350.789 419.418 L 354.181 419.418 L 356.65 398.837 L 336.202 391.475 L 333.791 402.513 Z" fill="#a6cbf8"/>
  <polygon points="453.962 261.629 453.315 260.982 454.292 260.006 460.128 253.196 460.822 253.79 454.962 260.625 453.962 261.629" fill="#fff"/>
</svg>