<?xml version="1.0" encoding="utf-8"?>
<svg data-name="Layer 1" width="1105.04" height="782.74" viewBox="-46.023 -30.071 1209.508 812.811" xmlns="http://www.w3.org/2000/svg" xmlns:xlink="http://www.w3.org/1999/xlink">
  <defs>
    <linearGradient id="cb66075b-2ebe-455c-893b-1def13a8d59c-130" x1="481.48" y1="854.12" x2="481.48" y2="276.47" gradientUnits="userSpaceOnUse" gradientTransform="matrix(0.972087, 0, 0, 0.972087, -42.711391, -71.74748)">
      <stop offset="0" stop-color="gray" stop-opacity="0.25"/>
      <stop offset="0.54" stop-color="gray" stop-opacity="0.12"/>
      <stop offset="1" stop-color="gray" stop-opacity="0.1"/>
    </linearGradient>
    <linearGradient id="b7415561-023b-44da-badb-9b3453976a8a-131" x1="878.34" y1="879.41" x2="878.34" y2="264.07" gradientTransform="matrix(0.972087, 0, 0, 0.972087, -200.344875, -85.10874)" xlink:href="#cb66075b-2ebe-455c-893b-1def13a8d59c-130"/>
  </defs>
  <title>medicine</title>
  <path d="M61.08,396.83H162.57V535.16H68.51c-.25,1.42-.49,2.85-.75,4.28h94.81V651c-.17-.05-.32-.11-.48-.17-2.68-1.06-5.34-2.18-8-3.38l-1.7-.77q-4-1.89-8-4c-.93-.49-1.86-1-2.78-1.52A166.42,166.42,0,0,1,101.73,610c-.34-.33-.66-.68-1-1-1.62-1.76-3.21-3.54-4.75-5.36l-1.7-2c-1.82-2.23-3.58-4.52-5.29-6.84-.25-.34-.49-.68-.75-1a148.88,148.88,0,0,1-17.2-31.1c-.14-.33-.26-.69-.39-1Q68.59,556.4,67,551c-.46-1.51-.9-3-1.28-4.57-.14-.46-.26-.91-.37-1.36C59.67,522.9,59,499.87,59,477c0-2.67,0-5.35,0-8,0-9.25.11-18.56.27-27.86,0-2.41.1-4.81.15-7.23q.21-9.21.6-18.42c.06-1.71.14-3.41.23-5.11q0-1.47.15-2.94C60.64,403.88,60.84,400.35,61.08,396.83Z" transform="translate(-47.24 -58.63)" fill="#a6cbf8" opacity="0.1"/>
  <path d="M162.57,242.81H106.9a422,422,0,0,1,29.61-40.76c8.27-10.16,17-20.06,26.06-29.6Z" transform="translate(-47.24 -58.63)" fill="#a6cbf8" opacity="0.1"/>
  <path d="M162.57,247.09V392.55H61.4c0-.42.07-.85.1-1.27.09-1.15.18-2.3.28-3.44.11-1.34.23-2.69.36-4s.27-2.91.42-4.36.29-2.92.46-4.37.32-2.9.5-4.34.34-2.9.53-4.34c.15-1.2.31-2.39.47-3.59.23-1.69.47-3.39.73-5.07,0-.25.07-.51.11-.75a345.9,345.9,0,0,1,7.45-36.52,270.08,270.08,0,0,1,12.55-37,277.75,277.75,0,0,1,18.88-36.36Z" transform="translate(-47.24 -58.63)" fill="#a6cbf8" opacity="0.1"/>
  <path d="M186.8,396.82V535.16H403.57V396.82Zm0,142.61v118.8c1.24.26,2.47.51,3.69.72,1.66.32,3.31.61,5,.86.32.05.65.1,1,.13.66.11,1.34.2,2,.29,1.67.23,3.33.42,5,.57.79.08,1.59.15,2.39.21l1.93.15h0c1.05.08,2.09.14,3.12.17.64,0,1.28.06,1.94.08.5,0,1,0,1.52,0s1.26,0,1.89,0c.86,0,1.72,0,2.57,0H220c.86,0,1.72,0,2.57-.08h.06c.59,0,1.19,0,1.79-.08a4.19,4.19,0,0,0,.5,0c.5,0,1,0,1.48-.07l.35,0,3.35-.26c1.1-.1,2.21-.23,3.33-.35l2.28-.27a199.45,199.45,0,0,0,27.45-5.84c20.22-5.64,40-13.53,60.21-19.31,26.13-7.45,55-11.11,80.25-2V539.43ZM403.57,242.81V58.64a278.67,278.67,0,0,0-70.43,8.26C278.25,80.69,229,110.6,186.8,148.8v94h10.88v4.27H186.8V392.55H403.57V247.08H242.35v-4.27ZM682,180.6c-13.58-.48-27.08-4.78-39.29-11.42-23.35-12.7-42-32.31-62.84-48.86-43.3-34.47-97-55.27-152.09-60.43V242.81H737.23L738,242Zm28.19-5,29.89,32.8V167C730.07,168.24,721.3,171.19,710.23,175.56Zm29.89,512.13V539.43H676.39c-.17-.63-.34-1.27-.54-1.91.19.64.35,1.28.53,1.91H427.82V646.68c2.36,1.75,4.69,3.59,7,5.46h0c2.49,2,4.95,4.11,7.42,6.18l2.49,2.06c1.19,1,2.39,2,3.6,2.94q3.6,2.92,7.27,5.76c1.21,1,2.45,1.9,3.68,2.84a501.22,501.22,0,0,0,61.63,40.31q7.23,4,14.59,7.81c3.27,1.67,6.56,3.33,9.86,4.94q7.44,3.63,15,7h0a550.84,550.84,0,0,0,146,42.53q16.79,2.48,33.71,3.9V687.72l1,0ZM427.82,247.08V392.55h312.3V247.08Zm0,149.74V535.16h312.3V396.82Zm336.54-230V213l38.15-41.86Q783.55,168.08,764.36,166.77Zm0,230.05V535.16h303.75V396.82ZM1067,698.71l1.07-159.28H764.36V780a544.73,544.73,0,0,0,58.7-.7h0l.34,0q14-.88,27.87-2.56l.21,0a513.24,513.24,0,0,0,143.2-38.21m132-318.93c-1.14-2.69-2.33-5.36-3.54-8-2.26-5-4.65-9.86-7.11-14.72h-23.7V535.16h59.92C1152.22,496,1142.31,456,1126.71,419.55Zm-34.35,119.88v137c16.88-16.18,31.14-34.69,41.41-55.85,12.35-25.48,18-53.07,18.46-81.17Zm0-182.92v36h21.48A390,390,0,0,0,1092.36,356.51Zm-206-162.6c-1.58-.6-3.16-1.21-4.75-1.8a433.62,433.62,0,0,0-51.31-15.42l-58.38,64.07h0L770.77,242l.75.82H979.3A444.41,444.41,0,0,0,886.36,193.91Zm99.06,53.17H768.62l-4.26,3.9V392.55H801.7l.06,0,0,0h266.39V324A432.8,432.8,0,0,0,985.42,247.08Z" transform="translate(-47.24 -58.63)" fill="#a6cbf8" opacity="0.1"/>
  <path d="M162.57,320.46v72.09H61.4c0-.42.07-.85.1-1.27.09-1.15.18-2.3.28-3.44.11-1.34.23-2.69.36-4s.27-2.91.42-4.36.29-2.92.46-4.37.32-2.9.5-4.34.34-2.9.53-4.34c.15-1.2.31-2.39.47-3.59.23-1.69.47-3.39.73-5.07,0-.25.07-.51.11-.75a345.9,345.9,0,0,1,7.45-36.52Z" transform="translate(-47.24 -58.63)" fill="#a6cbf8" opacity="0.1"/>
  <path d="M61.08,396.83H162.57V535.16H68.51c-.25,1.42-.49,2.85-.75,4.28h94.81V651c-.17-.05-.32-.11-.48-.17-2.68-1.06-5.34-2.18-8-3.38l-1.7-.77q-4-1.89-8-4c-.93-.49-1.86-1-2.78-1.52A166.42,166.42,0,0,1,101.73,610c-.34-.33-.66-.68-1-1-1.62-1.76-3.21-3.54-4.75-5.36l-1.7-2c-1.82-2.23-3.58-4.52-5.29-6.84-.25-.34-.49-.68-.75-1a148.88,148.88,0,0,1-17.2-31.1c-.14-.33-.26-.69-.39-1Q68.59,556.4,67,551c-.46-1.51-.9-3-1.28-4.57-.14-.46-.26-.91-.37-1.36C59.67,522.9,59,499.87,59,477c0-2.67,0-5.35,0-8,0-9.25.11-18.56.27-27.86,0-2.41.1-4.81.15-7.23q.21-9.21.6-18.42c.06-1.71.14-3.41.23-5.11q0-1.47.15-2.94C60.64,403.88,60.84,400.35,61.08,396.83Z" transform="translate(-47.24 -58.63)" fill="#a6cbf8" opacity="0.1"/>
  <polygon points="215.87 209.28 215.87 333.92 139.56 333.92 139.56 209.28 150.44 209.28 150.44 167.08 195.1 167.08 195.1 209.28 215.87 209.28" fill="#a6cbf8" opacity="0.1"/>
  <rect x="139.57" y="338.19" width="76.3" height="138.33" fill="#a6cbf8" opacity="0.1"/>
  <path d="M186.8,539.44h76.31v115a199.11,199.11,0,0,1-27.45,5.83l-2.28.28c-1.12.13-2.23.24-3.33.35s-2.24.19-3.35.26l-.35,0c-.48,0-1,.06-1.47.07l-.51,0c-.6,0-1.2.06-1.8.08h0c-.85.05-1.7.06-2.57.07-.37,0-.72,0-1.09,0-.86,0-1.71,0-2.57,0l-1.89,0c-.51,0-1,0-1.53,0l-1.93-.07c-1,0-2.08-.11-3.12-.18h0l-1.92-.14-2.39-.22c-1.68-.15-3.35-.34-5-.57l-2-.28-1-.14c-1.67-.26-3.32-.54-5-.86-1.23-.21-2.45-.47-3.69-.72Z" transform="translate(-47.24 -58.63)" fill="#a6cbf8" opacity="0.1"/>
  <rect x="629.96" y="194.56" width="62.92" height="139.35" fill="#a6cbf8" opacity="0.1"/>
  <polygon points="692.89 338.19 692.89 476.53 380.58 476.53 380.58 416.86 546.93 416.86 546.93 452.06 629.96 452.06 629.96 338.19 692.89 338.19" fill="#a6cbf8" opacity="0.1"/>
  <path d="M741.12,687.76l-1,0v90.75q-16.9-1.43-33.7-3.89A550.87,550.87,0,0,1,560.36,732q-20.13-9.06-39.44-19.78a503.26,503.26,0,0,1-61.64-40.31q-7.36-5.64-14.53-11.54c-3.31-2.73-6.6-5.53-9.93-8.25-2.31-1.87-4.64-3.71-7-5.47V539.44H676.37c-.17-.64-.34-1.28-.52-1.91.19.63.37,1.27.54,1.91h63.73V687.7C740.46,687.71,740.79,687.74,741.12,687.76Z" transform="translate(-47.24 -58.63)" fill="#a6cbf8" opacity="0.1"/>
  <path d="M904.22,242.81h-41V230.07H881.6V192.12q2.39.87,4.76,1.79v36.16h17.86Z" transform="translate(-47.24 -58.63)" fill="#a6cbf8" opacity="0.1"/>
  <path d="M1003,392.55H801.72s0,0,.07.05l-.09-.05H764.36V253.2h10.58v103h48.35v-61h39.94V247.09h41v48.15h39.94v61H1003Z" transform="translate(-47.24 -58.63)" fill="#a6cbf8" opacity="0.1"/>
  <path d="M764.36,396.82V535.16H1003V396.82ZM1067.78,698l.33-109.5H1003v-49H764.36V780a544.73,544.73,0,0,0,58.7-.7h0l.34,0q14-.88,27.87-2.56l.21,0a513.24,513.24,0,0,0,143.2-38.21" transform="translate(-47.24 -58.63)" fill="#a6cbf8" opacity="0.1"/>
  <path d="M1096.57,539.44h55.67c-.49,28.09-6.13,55.68-18.47,81.16-10.27,21.17-24.54,39.68-41.4,55.85v-88h4.2Z" transform="translate(-47.24 -58.63)" fill="#a6cbf8" opacity="0.1"/>
  <path d="M1152.27,535.16h-55.7V419.55h30.14C1142.31,456,1152.22,496,1152.27,535.16Z" transform="translate(-47.24 -58.63)" fill="#a6cbf8" opacity="0.1"/>
  <rect x="380.58" y="473.32" width="144.47" height="3.21" fill="#a6cbf8" opacity="0.1"/>
  <rect x="380.58" y="480.8" width="144.47" height="12.3" fill="#a6cbf8" opacity="0.1"/>
  <rect x="380.58" y="533.42" width="144.47" height="19.78" fill="#a6cbf8" opacity="0.1"/>
  <path d="M572.28,652.15v19.78h-113q-7.36-5.62-14.54-11.54c-3.31-2.73-6.59-5.53-9.93-8.24Z" transform="translate(-47.24 -58.63)" fill="#a6cbf8" opacity="0.1"/>
  <path d="M572.28,712.24V732H560.35q-20.11-9.07-39.43-19.79Z" transform="translate(-47.24 -58.63)" fill="#a6cbf8" opacity="0.1"/>
  <rect x="160.05" y="219.09" width="28.44" height="28.44" fill="#a6cbf8" opacity="0.1"/>
  <rect x="160.05" y="285.15" width="28.44" height="28.44" fill="#a6cbf8" opacity="0.1"/>
  <rect x="160.05" y="351.21" width="28.44" height="28.44" fill="#a6cbf8" opacity="0.1"/>
  <rect x="160.05" y="417.26" width="28.44" height="28.44" fill="#a6cbf8" opacity="0.1"/>
  <rect x="160.05" y="483.32" width="28.44" height="28.44" fill="#a6cbf8" opacity="0.1"/>
  <rect x="160.05" y="549.38" width="28.44" height="28.44" fill="#a6cbf8" opacity="0.1"/>
  <path d="M65.24,357v16.27h97.33V357Zm9.7,15.25H67V358h8Zm9.69,0h-8V358h8Zm9.67,0h-8V358h8Zm9.69,0H96V358h8Zm9.68,0h-8V358h8Zm9.69,0h-8V358h8Zm9.69,0h-8V358h8Zm9.68,0h-8V358h8Zm9.68,0h-8V358h8Zm9.68,0h-8V358h8Z" transform="translate(-47.24 -58.63)" fill="#a6cbf8" opacity="0.1"/>
  <path d="M65.24,404.34v16.27h97.33V404.34Zm9.7,15.24H67V405.37h8Zm9.69,0h-8V405.37h8Zm9.67,0h-8V405.37h8Zm9.69,0H96V405.37h8Zm9.68,0h-8V405.37h8Zm9.69,0h-8V405.37h8Zm9.69,0h-8V405.37h8Zm9.68,0h-8V405.37h8Zm9.68,0h-8V405.37h8Zm9.68,0h-8V405.37h8Z" transform="translate(-47.24 -58.63)" fill="#a6cbf8" opacity="0.1"/>
  <path d="M65.24,451.7V468h97.33V451.7Zm9.7,15.24H67V452.72h8Zm9.69,0h-8V452.72h8Zm9.67,0h-8V452.72h8Zm9.69,0H96V452.72h8Zm9.68,0h-8V452.72h8Zm9.69,0h-8V452.72h8Zm9.69,0h-8V452.72h8Zm9.68,0h-8V452.72h8Zm9.68,0h-8V452.72h8Zm9.68,0h-8V452.72h8Z" transform="translate(-47.24 -58.63)" fill="#a6cbf8" opacity="0.1"/>
  <path d="M65.24,499.06v16.25h97.33V499.06Zm9.7,15.24H67V500.07h8Zm9.69,0h-8V500.07h8Zm9.67,0h-8V500.07h8Zm9.69,0H96V500.07h8Zm9.68,0h-8V500.07h8Zm9.69,0h-8V500.07h8Zm9.69,0h-8V500.07h8Zm9.68,0h-8V500.07h8Zm9.68,0h-8V500.07h8Zm9.68,0h-8V500.07h8Z" transform="translate(-47.24 -58.63)" fill="#a6cbf8" opacity="0.1"/>
  <path d="M65.66,546.41c.39,1.53.83,3.06,1.29,4.57v-3.55h8v14.22H70.67c.13.33.26.69.39,1h91.51V546.41Zm19,15.24h-8V547.43h8Zm9.67,0h-8V547.43h8Zm9.69,0H96V547.43h8Zm9.68,0h-8V547.43h8Zm9.69,0h-8V547.43h8Zm9.69,0h-8V547.43h8Zm9.68,0h-8V547.43h8Zm9.68,0h-8V547.43h8Zm9.68,0h-8V547.43h8Z" transform="translate(-47.24 -58.63)" fill="#a6cbf8" opacity="0.1"/>
  <path d="M88.26,593.77c.25.32.49.68.75,1H94.3v6.83c.57.68,1.13,1.36,1.71,2v-8.87h8V609h-3.24c.32.33.63.68,1,1h60.83V593.77ZM113.67,609h-8V594.79h8Zm9.69,0h-8V594.79h8Zm9.69,0h-8V594.79h8Zm9.68,0h-8V594.79h8Zm9.68,0h-8V594.79h8Zm9.68,0h-8V594.79h8Z" transform="translate(-47.24 -58.63)" fill="#a6cbf8" opacity="0.1"/>
  <path d="M141.65,641.12c.91.52,1.84,1,2.78,1.52v-.5h8v4.5l1.7.79v-5.29h8v8.65a2.5,2.5,0,0,0,.48.18v-9.85Z" transform="translate(-47.24 -58.63)" fill="#a6cbf8" opacity="0.1"/>
  <path d="M801.72,392.55h0l.06,0Zm-61.6,295.14v0l1,0ZM675.85,537.52c.19.64.35,1.28.53,1.91h0C676.22,538.8,676.05,538.16,675.85,537.52Zm125.87-145h0l.06,0Zm-604-149.74v4.27h44.67v-4.27ZM740.12,687.69v0l1,0ZM675.85,537.52c.19.64.35,1.28.53,1.91h0C676.22,538.8,676.05,538.16,675.85,537.52Zm125.87-145h0l.06,0Zm-61.6,295.14v0l1,0ZM675.85,537.52c.19.64.35,1.28.53,1.91h0C676.22,538.8,676.05,538.16,675.85,537.52Z" transform="translate(-47.24 -58.63)" fill="#a6cbf8" opacity="0.1"/>
  <path d="M881.39,451v0Z" transform="translate(-47.24 -58.63)" fill="#ffb0b1"/>
  <ellipse cx="670.042" cy="756.505" rx="94.72" ry="15.213" fill="#a6cbf8" opacity="0.1"/>
  <ellipse cx="400.482" cy="754.653" rx="94.72" ry="15.213" fill="#a6cbf8" opacity="0.1"/>
  <path d="M 509.531 352.384 C 509.509 352.288 509.457 352.2 509.385 352.131 C 507.937 350.702 489.467 324.582 489.467 324.582 C 489.467 324.582 488.495 321.666 486.92 317.875 C 487.426 317.222 487.805 316.48 488.038 315.688 C 488.124 315.352 488.185 315.011 488.223 314.667 C 488.223 314.56 488.301 314.473 488.33 314.366 C 488.668 313.047 488.634 311.661 488.232 310.361 C 488.125 310.694 487.991 311.02 487.834 311.333 C 487.468 310.2 486.979 309.111 486.376 308.086 C 483.926 303.867 480.427 300.309 477.851 296.197 C 473.951 289.809 472.4 282.26 473.466 274.85 C 473.466 275.229 473.466 275.618 473.466 275.997 C 473.565 274.529 473.759 273.067 474.05 271.623 C 474.456 269.98 474.999 268.373 475.673 266.821 C 477.987 261.523 481.729 256.906 484.004 251.588 C 484.768 249.795 485.347 247.928 485.734 246.018 C 486.536 242.828 486.828 239.53 486.599 236.249 C 486.599 237.026 486.473 237.804 486.356 238.572 C 486.111 230.682 482.925 223.168 477.423 217.507 C 469.481 209.526 458.078 206.425 447.172 204.792 C 442.589 204.257 438.212 202.586 434.437 199.932 C 430.247 197.219 424.833 196.568 419.934 197.161 C 414.303 197.771 409.071 200.357 405.168 204.461 C 399.986 210.158 397.741 218.226 391.694 223.028 C 388.03 225.945 383.383 227.306 379.116 229.289 C 374.848 231.272 370.814 234.149 369.443 238.407 C 369.443 238.407 369.443 238.348 369.443 238.319 L 369.443 238.562 L 369.385 238.718 C 367.966 243.753 370.707 248.876 372.136 253.902 C 373.623 259.102 373.721 264.595 373.798 269.97 C 373.905 276.542 374.003 283.123 373.896 289.704 C 373.847 292.29 373.759 294.904 373.565 297.48 C 371.265 298.176 369.03 299.074 366.887 300.163 C 364.709 301.583 356.563 310.38 356.563 310.38 L 340.631 371.252 L 340.845 371.495 L 340.631 372.321 L 341.438 372.137 C 343.693 374.567 350.429 381.488 357.701 385.804 L 358.381 397.742 C 358.381 397.742 359.198 409.718 370.211 414.666 C 370.464 418.816 371.252 435.672 367.606 442.351 C 365.083 447.229 363.895 452.69 364.165 458.176 C 364.165 458.176 365.438 468.305 363.99 473.632 C 363.144 477.193 363.081 480.894 363.805 484.481 C 363.805 484.481 363.805 485.657 363.805 487.679 C 363.805 498.459 363.932 533.007 363.805 536.915 C 363.621 541.533 363.805 609.822 363.805 609.822 C 363.805 609.822 362.901 643.952 360.004 653.196 C 357.108 662.441 357.837 693.052 357.837 693.052 C 357.837 693.052 356.019 729.515 362.444 736.708 C 362.444 737.029 362.386 737.36 362.376 737.68 C 362.376 737.826 362.376 737.991 362.376 738.137 C 362.299 740.908 362.833 743.853 365.215 744.757 C 370.075 746.624 376.501 752.223 377.716 753.827 C 378.931 755.431 385.998 759.426 395.213 758.357 C 400.987 757.708 406.797 757.442 412.604 757.56 C 412.604 757.56 416.24 756.898 415.063 752.378 C 415.063 752.378 415.063 752.378 415.063 752.378 C 414.305 749.559 411.467 745.224 409.445 742.376 C 409.814 742.473 410.174 742.55 410.514 742.619 L 410.864 742.687 L 411.136 742.687 C 411.286 742.696 411.435 742.696 411.583 742.687 L 411.778 742.687 C 411.96 742.702 412.141 742.702 412.322 742.687 C 414.762 742.453 423.861 746.692 425.484 749.491 C 427.108 752.291 432.833 754.42 437.149 754.954 C 439.716 755.265 446.19 754.74 451.624 754.041 C 454.36 753.759 457.071 753.264 459.731 752.563 C 461.014 752.077 461.286 750.522 460.917 748.772 C 460.481 746.55 459.293 744.545 457.553 743.095 C 455.979 741.977 453.898 739.032 452.362 736.621 L 451.954 735.969 C 454.666 733.384 459.566 724.927 461.053 723.177 C 462.861 721.048 458.137 643.193 458.137 643.193 L 458.137 604.164 L 465.379 567.225 L 470.443 547.676 L 474.788 518.164 C 474.788 518.164 482.39 483.693 480.047 480.311 C 480.047 480.243 478.103 444.752 476.062 436.226 C 475.177 432.426 475.401 423.871 475.926 415.55 C 477.046 414.438 477.425 412.781 476.898 411.292 C 476.753 410.795 476.564 410.31 476.334 409.844 C 476.334 409.698 476.334 409.543 476.334 409.397 C 480.534 407.465 484.922 405.973 489.428 404.945 C 496.67 403.525 494.862 399.793 494.862 399.793 C 494.862 399.793 496.495 396.594 497.574 394.641 C 498.653 392.687 497.759 375.442 497.574 374.023 C 497.506 373.449 497.059 370.28 496.544 366.683 C 498.867 365.031 501.89 362.98 505.186 361.036 C 511.456 357.322 510.046 353.405 509.531 352.384 Z M 415.044 598.837 C 415.044 598.837 409.61 612.699 411.788 616.247 C 413.965 619.795 411.428 632.967 411.428 632.967 L 409.61 652.516 C 409.61 652.516 404.545 688.775 406.354 697.3 C 407.773 703.988 408.298 723.964 408.463 732.295 C 408.339 732.344 408.219 732.402 408.103 732.47 L 407.86 732.596 C 408.696 729.32 408.346 722.691 404.196 709.354 L 403.846 654.266 C 403.846 654.266 403.204 590.633 408.23 583.517 C 413.255 576.401 415.034 564.318 415.034 564.318 C 415.034 564.318 413.946 581.748 413.236 586.365 C 412.526 590.983 415.044 598.837 415.044 598.837 Z M 404.925 735.765 C 404.876 735.882 404.818 735.999 404.779 736.106 L 404.507 735.756 C 404.646 735.769 404.786 735.772 404.925 735.765 Z" fill="url(#cb66075b-2ebe-455c-893b-1def13a8d59c-130)"/>
  <path d="M 460.343 757.598 C 457.534 758.677 442.301 760.515 438.044 759.999 C 433.786 759.484 428.148 757.326 426.544 754.507 C 424.94 751.688 415.948 747.43 413.537 747.703 C 412.55 747.733 411.564 747.595 410.621 747.294 C 408.958 746.791 407.333 746.167 405.761 745.428 C 405.541 744.203 405.578 742.945 405.868 741.734 C 405.924 741.49 405.996 741.25 406.081 741.015 C 406.649 739.42 407.823 738.114 409.348 737.379 L 409.698 737.214 C 410.372 736.923 411.076 736.707 411.797 736.572 C 419.438 735.104 450.963 738.05 450.963 738.05 C 450.963 738.05 451.847 739.634 453.062 741.598 C 454.579 744.028 456.64 746.993 458.195 748.111 C 459.918 749.584 461.088 751.6 461.51 753.827 C 461.879 755.547 461.607 757.122 460.343 757.598 Z" fill="#fff"/>
  <path d="M 460.343 757.598 C 457.534 758.677 442.311 760.515 438.053 759.999 C 433.796 759.484 428.157 757.316 426.544 754.507 C 424.93 751.698 415.958 747.43 413.547 747.703 C 411.136 747.975 405.77 745.428 405.77 745.428 C 405.77 745.428 404.934 741.54 407.365 738.886 L 412.225 742.337 C 412.225 742.337 425.231 746.371 427.642 750.113 C 430.053 753.856 434.447 755.946 440.795 756.325 C 445.538 756.636 456.435 754.789 461.539 753.866 C 461.879 755.547 461.617 757.122 460.343 757.598 Z" opacity="0.1"/>
  <path d="M 413.809 762.556 C 408.076 762.444 402.341 762.714 396.642 763.363 C 387.515 764.432 380.545 760.447 379.33 758.804 C 378.114 757.161 371.825 751.61 366.994 749.666 C 364.632 748.752 364.078 745.778 364.184 742.998 C 364.184 742.852 364.184 742.687 364.184 742.541 C 364.275 740.78 364.534 739.032 364.962 737.321 L 402.786 736.514 L 406.062 740.956 L 406.567 741.637 L 408.56 744.349 C 408.56 744.349 409.464 745.535 410.65 747.265 C 412.653 750.181 415.452 754.488 416.201 757.336 C 417.396 761.895 413.809 762.556 413.809 762.556 Z" fill="#fff"/>
  <path d="M 413.809 762.556 C 408.076 762.444 402.341 762.714 396.642 763.363 C 387.524 764.432 380.545 760.447 379.339 758.804 C 378.134 757.161 371.825 751.562 366.994 749.686 C 364.632 748.772 364.078 745.797 364.184 743.017 C 366.887 743.649 372.564 745.263 374.79 748.072 C 377.706 751.824 382.926 758.133 390.343 758.532 C 396.331 758.852 410.913 757.783 416.259 757.355 C 417.406 761.895 413.809 762.556 413.809 762.556 Z" opacity="0.1"/>
  <path d="M 409.309 737.34 C 408.871 740.587 407.52 741.462 406.548 741.656 C 406.311 741.703 406.067 741.703 405.829 741.656 C 405.701 741.647 405.575 741.628 405.45 741.598 C 405.45 741.598 371.485 749.102 364.622 743.027 C 364.448 742.87 364.286 742.702 364.136 742.521 C 364.226 740.761 364.486 739.012 364.914 737.301 L 402.737 736.494 L 406.013 740.937 C 406.581 739.343 407.755 738.036 409.28 737.301 L 409.309 737.34 Z" opacity="0.1"/>
  <path d="M 453.053 741.559 C 452.294 742.395 451.663 742.871 451.264 742.706 C 449.475 741.987 434.816 739.488 430.16 741.637 C 425.504 743.785 409.746 741.987 409.746 741.987 C 409.746 741.987 409.746 740.12 409.659 737.126 C 410.333 736.836 411.037 736.62 411.758 736.485 C 419.399 735.017 450.924 737.962 450.924 737.962 C 450.924 737.962 451.847 739.595 453.053 741.559 Z" opacity="0.1"/>
  <path d="M 475.236 521.673 L 470.939 551.36 L 465.943 571.035 L 458.788 608.228 L 458.788 647.597 C 458.788 647.597 463.435 725.928 461.646 728.066 C 459.857 730.205 453.062 742.385 451.274 741.676 C 449.485 740.966 434.826 738.458 430.17 740.597 C 425.513 742.735 409.756 740.956 409.756 740.956 C 409.756 740.956 409.396 710.559 407.608 701.976 C 405.819 693.392 410.825 656.91 410.825 656.91 L 412.614 637.244 C 412.614 637.244 415.122 624.004 412.973 620.427 C 410.825 616.85 416.191 602.93 416.191 602.93 C 416.191 602.93 413.693 595.046 414.412 590.399 C 415.132 585.753 416.191 568.226 416.191 568.226 C 416.191 568.226 414.412 580.397 409.445 587.541 C 404.477 594.686 405.109 658.718 405.109 658.718 L 405.459 714.127 C 414.412 743.464 405.459 740.597 405.459 740.597 C 405.459 740.597 371.495 748.111 364.632 742.026 C 357.769 735.94 359.732 697.64 359.732 697.64 C 359.732 697.64 359.023 666.883 361.881 657.59 C 364.739 648.297 365.643 613.953 365.643 613.953 C 365.643 613.953 365.458 545.275 365.643 540.638 C 365.779 536.75 365.643 501.94 365.643 491.062 C 365.643 489.04 365.643 487.844 365.643 487.844 L 369.745 477.657 L 418.349 471.572 L 441.601 471.572 C 441.601 471.572 476.597 479.795 480.213 483.343 C 480.291 483.403 480.357 483.475 480.407 483.557 C 482.75 486.989 475.236 521.673 475.236 521.673 Z" fill="#a6cbf8"/>
  <path d="M 416.22 677.615 C 416.22 677.615 426.913 703.366 431.958 705.154 C 437.003 706.943 416.22 677.615 416.22 677.615 Z" opacity="0.1"/>
  <path d="M 420.177 715.526 C 420.177 715.526 456.28 717.315 455.92 721.252 C 455.561 725.189 420.177 715.526 420.177 715.526 Z" opacity="0.1"/>
  <path d="M 371.874 705.232 C 373.303 706.583 399.413 709.12 397.265 711.59 C 395.116 714.059 374.022 718.861 374.022 718.861 L 371.874 705.232 Z" opacity="0.1"/>
  <path d="M 367.587 660.808 C 367.587 661.877 372.953 695.142 374.391 696.571 C 375.83 698 387.621 699.429 387.621 699.429 L 367.587 660.808 Z" opacity="0.1"/>
  <path d="M 406.519 206.124 C 401.396 211.849 399.18 219.966 393.211 224.807 C 389.585 227.724 384.997 229.114 380.778 231.097 C 376.559 233.08 372.379 236.103 371.125 240.594 C 369.725 245.649 372.428 250.811 373.847 255.865 C 375.315 261.095 375.402 266.558 375.49 272.031 C 375.587 278.651 375.694 285.271 375.577 291.891 C 375.402 302.205 374.547 312.995 369.074 321.734 C 388.837 328.023 409.853 328.879 430.578 329.686 C 434.562 329.971 438.562 329.869 442.525 329.384 C 445.959 328.7 449.357 327.841 452.703 326.808 C 459.32 325.058 466.137 324.186 472.98 324.213 C 475.965 324.213 479.007 324.398 481.885 323.62 C 484.762 322.842 487.533 320.849 488.31 317.972 C 489 315.386 487.989 312.635 486.667 310.312 C 484.257 306.074 480.835 302.535 478.249 298.355 C 472.897 289.401 472.113 278.437 476.14 268.814 C 478.434 263.477 482.128 258.83 484.383 253.484 C 489.101 241.761 486.557 228.366 477.87 219.189 C 470.025 211.159 458.768 208.048 447.998 206.396 C 443.463 205.86 439.136 204.188 435.419 201.535 C 431.288 198.814 425.931 198.153 421.09 198.755 C 415.506 199.381 410.333 201.997 406.519 206.124 Z" style="fill: rgb(47, 46, 65);"/>
  <g opacity="0.1" transform="matrix(0.972087, 0, 0, 0.972087, -27.206604, -53.705551)">
    <path d="M534.06,344.57a33.27,33.27,0,0,0-2.55,15.27A32.7,32.7,0,0,1,534.06,349c2.35-5.49,6.15-10.27,8.47-15.77a31.91,31.91,0,0,0,2.33-14.52,31.1,31.1,0,0,1-2.33,10.1C540.21,334.31,536.41,339.08,534.06,344.57Z" transform="translate(-15.95 -18.56)"/>
    <path d="M430.51,352.29c.06,3.92.12,7.85.13,11.77,0-5.4-.05-10.79-.13-16.18-.08-5.59-.18-11.25-1.69-16.64-1-3.42-2.48-6.89-3-10.34-.89,4.9,1.64,9.87,3,14.76C430.33,341,430.43,346.7,430.51,352.29Z" transform="translate(-15.95 -18.56)"/>
    <path d="M540,401c-3,.81-6.08.63-9.15.61A80.22,80.22,0,0,0,510,404.23a106.2,106.2,0,0,1-10.47,2.64,63.17,63.17,0,0,1-12.3.32c-20.6-.81-41.49-1.68-61.22-7.57a33.94,33.94,0,0,1-2,3.8c20.33,6.46,41.95,7.35,63.26,8.18a63.17,63.17,0,0,0,12.3-.32A103.41,103.41,0,0,0,510,408.65,80.22,80.22,0,0,1,530.81,406c3.07,0,6.19.19,9.15-.62s5.81-2.84,6.61-5.8a7.94,7.94,0,0,0-.1-4.16C545.58,398.22,542.83,400.17,540,401Z" transform="translate(-15.95 -18.56)"/>
  </g>
  <path d="M 453.422 306.54 C 452.703 308.154 449.67 322.094 448.95 323.523 C 448.231 324.952 444.304 347.825 443.944 349.108 C 443.585 350.391 418.057 343.742 418.057 343.742 L 402.689 330.862 L 386.892 315.143 C 386.892 315.143 386.426 300.961 398.062 296.411 C 398.853 296.101 399.666 295.847 400.492 295.653 C 414.607 292.26 413.187 249.343 413.187 249.343 L 442.156 261.853 C 442.156 261.853 436.79 286.894 436.974 291.726 C 437.023 293.349 438.296 294.36 439.959 294.972 C 442.529 295.703 445.205 295.993 447.871 295.828 C 447.871 295.828 454.141 304.936 453.422 306.54 Z" fill="#fbbebe"/>
  <path d="M 505.283 353.57 L 509.395 354.649 C 509.395 354.649 512.437 359.276 505.283 363.582 C 500.74 366.342 496.38 369.391 492.228 372.71 L 471.085 379.145 L 467.012 366.363 L 486.687 351.431 L 505.283 353.57 Z" fill="#a6cbf8"/>
  <path d="M 505.283 353.57 L 509.395 354.649 C 509.395 354.649 512.437 359.276 505.283 363.582 C 500.74 366.342 496.38 369.391 492.228 372.71 L 471.085 379.145 L 467.012 366.363 L 486.687 351.431 L 505.283 353.57 Z" opacity="0.1"/>
  <path d="M 350.983 365.915 L 342.76 373.964 C 342.76 373.964 357.594 391.131 369.006 392.201 C 380.418 393.27 387.777 379.145 387.777 379.145 L 377.901 363.592 L 350.983 365.915 Z" fill="#a6cbf8"/>
  <path d="M 350.983 365.915 L 342.76 373.964 C 342.76 373.964 357.594 391.131 369.006 392.201 C 380.418 393.27 387.777 379.145 387.777 379.145 L 377.901 363.592 L 350.983 365.915 Z" opacity="0.1"/>
  <circle cx="429.1" cy="248.779" r="28.609" opacity="0.1"/>
  <circle cx="429.1" cy="246.631" r="28.609" fill="#fbbebe"/>
  <path d="M 480.427 486.804 C 473.913 487.55 467.497 488.986 461.286 491.091 C 450.593 494.649 366.799 491.149 365.633 491.091 C 365.633 489.069 365.633 487.873 365.633 487.873 L 369.735 477.686 L 418.339 471.601 L 441.592 471.601 C 441.592 471.601 476.587 479.825 480.203 483.373 C 480.349 485.511 480.427 486.804 480.427 486.804 Z" opacity="0.1"/>
  <path d="M 453.422 306.54 C 452.703 308.154 449.67 322.094 448.95 323.523 C 448.231 324.952 444.304 347.825 443.944 349.108 C 443.585 350.391 418.057 343.742 418.057 343.742 L 402.689 330.862 L 386.892 315.143 C 386.892 315.143 386.426 300.961 398.062 296.411 L 426.952 329.627 L 439.959 294.972 C 442.529 295.703 445.205 295.993 447.871 295.828 C 447.871 295.828 454.141 304.936 453.422 306.54 Z" opacity="0.1"/>
  <path d="M 426.952 330.697 L 397.381 296.674 C 393.865 294.429 389.456 294.104 385.648 295.808 C 379.028 298.676 370.804 300.999 368.656 302.428 C 366.508 303.857 358.459 312.703 358.459 312.703 L 382.431 375.413 L 371.874 416.717 C 371.874 416.717 373.487 437.821 369.375 445.51 C 366.872 450.427 365.699 455.913 365.973 461.423 C 365.973 461.423 367.227 471.62 365.798 476.976 C 364.963 480.557 364.901 484.276 365.613 487.883 C 365.613 487.883 450.564 491.46 461.286 487.883 C 467.495 485.773 473.912 484.336 480.427 483.596 C 480.427 483.596 478.482 447.823 476.538 439.24 C 474.594 430.656 478.152 397.936 478.152 397.936 L 475.829 362.882 L 489.768 326.915 C 489.768 326.915 482.215 303.857 474.341 301.534 C 474.341 301.534 460.042 298.132 456.999 296.528 C 453.957 294.924 445.013 293.485 445.013 293.485 L 440.318 295.06 L 426.952 330.697 Z" fill="#a6cbf8"/>
  <rect x="442.222" y="431.227" width="68.085" height="104.188" rx="2.94" ry="2.94" transform="matrix(0.997696, 0.067841, -0.067841, 0.997696, -8.81472, -102.961197)" opacity="0.1"/>
  <rect x="444.37" y="429.089" width="68.085" height="104.188" rx="2.94" ry="2.94" transform="matrix(0.997696, 0.067841, -0.067841, 0.997696, -8.960531, -103.107002)" fill="#3f3d56"/>
  <rect x="448.715" y="436.914" width="59.317" height="89.646" transform="matrix(0.997696, 0.067841, -0.067841, 0.997696, -8.92165, -103.107002)" fill="#fff"/>
  <rect x="457.902" y="459.178" width="48.46" height="13.506" transform="matrix(0.997559, 0.069829, -0.069829, 0.997559, -10.068714, -103.320862)" opacity="0.1"/>
  <rect x="496.027" y="515.128" width="7.689" height="7.038" transform="matrix(0.997696, 0.067841, -0.067841, 0.997696, -6.365061, -104.477646)" opacity="0.1"/>
  <rect x="456.822" y="497.106" width="39.36" height="7.038" transform="matrix(0.997696, 0.067841, -0.067841, 0.997696, -7.638496, -102.93203)" opacity="0.1"/>
  <rect x="462.373" y="434.28" width="40.983" height="10.819" transform="matrix(0.997696, 0.067841, -0.067841, 0.997696, -11.760143, -103.505562)" fill="#3f3d56"/>
  <rect x="462.373" y="434.28" width="40.983" height="10.819" transform="matrix(0.997696, 0.067841, -0.067841, 0.997696, -11.760143, -103.505562)" opacity="0.1"/>
  <rect x="740.797" y="342.827" width="28.44" height="28.44" fill="#a6cbf8" opacity="0.1"/>
  <rect x="740.797" y="412.977" width="28.44" height="28.44" fill="#a6cbf8" opacity="0.1"/>
  <rect x="740.797" y="483.117" width="28.44" height="28.44" fill="#a6cbf8" opacity="0.1"/>
  <rect x="740.797" y="553.267" width="28.44" height="28.44" fill="#a6cbf8" opacity="0.1"/>
  <rect x="740.797" y="623.417" width="28.44" height="28.44" fill="#a6cbf8" opacity="0.1"/>
  <path d="M 430.529 484.831 C 430.529 484.831 430.17 537.771 416.22 568.168 C 416.22 568.168 433.037 528.108 433.037 526.504 C 433.037 524.9 442.331 508.083 439.842 503.077 C 437.353 498.071 430.529 484.831 430.529 484.831 Z" opacity="0.1"/>
  <path d="M 431.288 239.476 C 430.754 234.791 431.901 230.067 434.525 226.149 C 433.88 234.267 439.283 241.631 447.22 243.452 C 446.549 242.87 446.306 241.935 446.608 241.099 C 448.6 243.355 450.127 246.028 452.382 248.011 C 454.637 249.994 458.02 251.18 460.674 249.77 C 464.28 247.826 464.319 242.703 463.386 238.718 C 461.383 230.231 457.275 222.384 451.439 215.903 C 448.488 211.932 443.847 209.572 438.899 209.526 C 433.378 209.098 427.642 209.584 422.694 212.063 C 419.91 213.583 417.302 215.405 414.918 217.497 L 401.308 228.598 C 399.999 229.542 398.878 230.722 398.003 232.078 C 397.42 233.213 397.069 234.452 396.973 235.724 C 396.264 243.14 399.81 250.319 406.13 254.261 C 405.997 248.384 409.425 243.009 414.811 240.652 C 415.646 241.35 416.139 242.375 416.162 243.462 L 419.03 238.348 C 419.456 237.418 420.129 236.622 420.974 236.045 C 422.743 235.072 424.95 236.22 426.456 237.59 C 427.963 238.961 429.431 240.672 431.453 240.886 L 431.531 233.274" opacity="0.1"/>
  <path d="M 431.288 238.407 C 430.752 233.718 431.899 228.991 434.525 225.07 C 433.65 232.846 439.511 240.876 447.23 242.373 C 446.559 241.795 446.315 240.862 446.617 240.03 C 448.61 242.285 450.136 244.949 452.392 246.942 C 454.647 248.934 458.03 250.111 460.684 248.691 C 464.29 246.747 464.329 241.624 463.396 237.649 C 461.393 229.161 457.285 221.315 451.449 214.834 C 449.639 212.627 447.356 210.853 444.77 209.643 C 442.899 208.951 440.932 208.551 438.938 208.457 C 433.416 208.029 427.681 208.505 422.733 210.984 C 419.951 212.51 417.343 214.336 414.957 216.428 L 401.347 227.529 C 400.036 228.47 398.915 229.651 398.042 231.009 C 397.457 232.143 397.107 233.383 397.012 234.654 C 396.304 242.068 399.85 249.243 406.169 253.182 C 406.041 247.307 409.468 241.933 414.85 239.573 C 415.682 240.274 416.174 241.296 416.201 242.383 L 419.059 237.289 C 419.484 236.357 420.156 235.559 421.003 234.985 C 422.772 234.013 424.979 235.16 426.485 236.531 C 427.992 237.901 429.46 239.602 431.482 239.826 L 431.56 232.205" style="fill: rgb(47, 46, 65);"/>
  <path d="M 444.838 418.855 C 442.34 417.592 401.027 424.036 401.027 424.036 C 401.027 424.036 394.222 422.092 377.774 419.39 C 361.327 416.687 360.277 400.609 360.277 400.609 L 358.478 368.423 L 364.029 363.563 L 387.806 379.116 C 387.806 379.116 388.176 386.981 387.806 388.4 C 387.573 389.372 386.951 390.529 387.009 391.316 C 387.047 391.754 387.374 392.113 387.806 392.191 C 389.42 392.599 411.408 396.157 411.408 396.157 C 411.408 396.157 462.375 392.667 475.08 409.834 C 476.087 411.095 476.849 412.532 477.326 414.073 C 480.475 425.806 447.103 419.973 444.838 418.855 Z" fill="#fbbebe"/>
  <path d="M 477.355 414.141 C 475.411 415.006 474.205 415.628 474.205 415.628 C 474.205 415.628 455.969 415.093 445.723 411.38 C 435.477 407.667 423.025 408.328 423.025 408.328 C 423.025 408.328 380.331 400.979 386.951 391.384 C 386.989 391.822 387.315 392.181 387.748 392.259 C 389.361 392.667 411.35 396.225 411.35 396.225 C 411.35 396.225 462.317 392.735 475.022 409.902 C 476.06 411.155 476.851 412.594 477.355 414.141 Z" opacity="0.1"/>
  <path d="M 495.086 357.507 C 495.086 357.507 497.594 375.209 497.769 376.647 C 497.944 378.086 498.848 395.418 497.769 397.392 C 496.69 399.365 495.086 402.573 495.086 402.573 C 495.086 402.573 496.874 406.325 489.72 407.764 C 482.565 409.202 474.166 413.48 474.166 413.48 C 474.166 413.48 455.92 412.945 445.733 409.193 C 435.545 405.44 423.025 406.15 423.025 406.15 C 423.025 406.15 368.831 396.847 392.083 385.493 C 415.336 374.139 431.783 389.518 431.783 389.518 L 457.709 387.914 C 457.709 387.914 467.371 382.003 470.054 382.548 C 471.949 382.789 473.874 382.479 475.595 381.653 L 475.78 362.873 L 495.086 357.507 Z" fill="#fbbebe"/>
  <path d="M 363.621 314.055 L 358.43 313.782 L 342.701 375.024 C 342.701 375.024 359.684 370.727 367.003 375.024 C 374.323 379.32 387.748 380.205 387.748 380.205 L 382.742 331.387 L 363.621 314.055 Z" opacity="0.1"/>
  <path d="M 363.621 312.976 L 358.43 312.703 L 342.701 373.945 C 342.701 373.945 359.684 369.648 367.003 373.945 C 374.323 378.241 387.748 379.126 387.748 379.126 L 382.742 330.308 L 363.621 312.976 Z" fill="#a6cbf8"/>
  <path d="M 482.575 326.39 L 489.72 328.004 C 489.72 328.004 507.966 354.25 509.395 355.718 C 510.824 357.186 502.59 362.523 499.198 362.523 C 495.805 362.523 479.173 364.467 474.341 368.958 C 469.51 373.449 471.522 350.848 471.522 350.333 C 471.522 349.818 477.52 335.557 477.52 335.557 L 482.575 326.39 Z" opacity="0.1"/>
  <path d="M 482.575 325.321 L 489.72 326.925 C 489.72 326.925 507.966 353.22 509.395 354.649 C 510.824 356.078 502.59 361.454 499.198 361.454 C 495.805 361.454 479.173 363.398 474.341 367.889 C 469.51 372.38 471.522 349.779 471.522 349.264 C 471.522 348.748 477.559 334.439 477.559 334.439 L 482.575 325.321 Z" fill="#a6cbf8"/>
  <g opacity="0.1" transform="matrix(0.972087, 0, 0, 0.972087, -27.206604, -53.705551)">
    <path d="M490.89,305.43a14.75,14.75,0,0,1,.05-2.3,20.47,20.47,0,0,0-3.08,7.55l0,2.32s0-.05,0-.08l0,.55c0,1.62,0,3.25-.05,4.87l-.14,0,0,.75c0-.26,0-.51-.05-.77-2-.32-3.43-2-4.92-3.34s-3.82-2.62-5.64-1.59a5.73,5.73,0,0,0-2,2.37L472.09,321a3.87,3.87,0,0,0-1.39-2.88,14.91,14.91,0,0,0-8.93,14,20.32,20.32,0,0,1-9.49-15.93,20.22,20.22,0,0,0,9.49,18.13,14.93,14.93,0,0,1,8.93-14,3.91,3.91,0,0,1,1.39,2.89l2.94-5.24a5.73,5.73,0,0,1,2-2.37c1.82-1,4.09.18,5.64,1.59s3.06,3.16,5.14,3.39q0-3.84.08-7.66A20.37,20.37,0,0,1,490.89,305.43Z" transform="translate(-15.95 -18.56)"/>
    <path d="M487.51,315.5c.05-.68.13-1.36.23-2l.11-2.76A20.24,20.24,0,0,0,487.51,315.5Z" transform="translate(-15.95 -18.56)"/>
    <path d="M517.85,327.43c-2.73,1.46-6.21.24-8.53-1.8s-3.89-4.79-5.94-7.11a2.21,2.21,0,0,0,.63,2.42c-.2,0-.39-.1-.58-.15,2,2.3,3.59,5,5.89,7s5.8,3.26,8.53,1.8,3.51-4.88,3.27-8.21C520.94,324,520,326.27,517.85,327.43Z" transform="translate(-15.95 -18.56)"/>
    <path d="M503.37,320.77a17,17,0,0,1-12.46-14.86c-.57,7.85,5.35,15.72,13.1,17.23A2.2,2.2,0,0,1,503.37,320.77Z" transform="translate(-15.95 -18.56)"/>
  </g>
  <path d="M 755.809 385.586 C 755.809 385.586 751.979 385.051 751.979 379.481 C 751.979 373.911 749.238 363.48 749.238 363.48 C 749.238 363.48 746.866 345.331 743.59 342.454 C 740.314 339.577 736.105 322.682 736.105 322.682 C 736.105 322.682 735.386 313.515 733.918 311.542 C 732.45 309.568 730.467 304.737 727.541 297.845 C 724.615 290.953 712.444 286.229 712.444 286.229 C 712.444 286.229 690.388 273.436 684.137 269.266 C 683.566 268.921 683.032 268.516 682.543 268.06 C 681.454 266.641 676.71 266.612 676.71 266.612 C 676.215 263.472 675.738 259.875 675.583 256.619 C 675.583 256.269 675.583 255.919 675.583 255.569 C 682.553 251.449 687.803 244.954 690.368 237.274 C 690.485 236.905 690.582 236.526 690.689 236.147 C 691.552 235.88 692.26 235.258 692.633 234.436 C 693.187 233.182 693.207 231.724 693.907 230.547 C 694.723 229.167 696.279 228.428 697.503 227.398 C 700.595 224.764 701.392 220.341 701.246 216.326 C 701.149 213.06 700.624 209.774 700.828 206.537 C 700.828 206.265 700.828 205.993 700.886 205.72 C 700.945 205.244 701.013 204.748 701.1 204.282 C 701.576 201.871 702.617 199.596 703.2 197.205 C 703.783 194.814 703.841 192.121 702.48 190.06 C 700.488 187.037 696.337 186.434 692.692 186.172 C 688.56 185.822 684.915 186.269 682.222 182.837 C 680.988 181.045 679.596 179.367 678.062 177.821 C 677.517 177.316 672.229 174.079 672.229 173.875 C 667.056 171.469 661.185 171.017 655.704 172.601 C 652.953 173.398 650.377 174.701 647.587 175.352 C 641.599 176.772 634.697 175.236 629.603 178.667 C 626.765 180.611 625.063 183.712 623.469 186.716 C 622.173 189.192 620.858 191.671 619.523 194.152 C 617.364 198.226 615.187 202.367 614.283 206.877 C 614.094 207.863 613.974 208.859 613.923 209.861 C 613.923 210.221 613.923 210.581 613.923 210.94 C 613.923 211.096 613.923 211.251 613.923 211.407 C 613.923 211.738 613.923 212.068 613.982 212.379 C 614.04 212.69 613.982 212.778 614.05 212.982 C 614.118 213.186 614.137 213.643 614.195 213.954 C 614.254 214.265 614.37 214.819 614.487 215.237 C 614.487 215.422 614.604 215.597 614.662 215.781 C 614.72 215.966 614.876 216.433 615.002 216.754 C 615.129 217.074 615.138 217.094 615.216 217.259 C 615.362 217.599 615.537 217.93 615.712 218.231 C 615.79 218.357 615.848 218.484 615.926 218.61 C 616.193 219.065 616.492 219.501 616.82 219.913 C 618.891 222.508 621.962 224.161 624.227 226.591 C 624.227 226.688 624.227 226.785 624.227 226.883 C 624.227 227.145 624.227 227.408 624.227 227.68 C 624.509 238.685 630.215 248.839 639.47 254.801 C 639.47 255.17 639.518 255.549 639.538 255.929 C 639.728 258.811 639.692 261.704 639.431 264.58 C 638.628 263.638 637.442 263.109 636.204 263.141 C 635.787 263.121 635.368 263.157 634.959 263.248 L 634.872 263.18 L 634.872 263.268 C 632.733 263.793 630.099 266.019 627.581 272.347 C 627.581 272.347 619.921 280.979 614.089 280.62 C 608.256 280.26 593.49 289.611 593.49 289.611 C 593.49 289.611 579.084 298.953 575.992 308.48 C 574.265 313.883 572.19 319.169 569.781 324.305 L 551.924 360.972 L 548.648 390.135 C 548.648 390.135 550.465 403.073 550.106 405.056 C 549.746 407.04 557.581 424.829 557.581 424.829 C 557.581 424.829 583.468 470.303 594.044 472.636 L 594.802 472.111 C 595.257 472.34 595.737 472.516 596.231 472.636 L 598.409 471.11 C 598.544 472.819 598.486 474.537 598.234 476.233 C 596.785 480.733 598.788 510.032 601.335 515.777 C 603.882 521.522 602.978 596.859 602.978 596.859 L 602.618 603.498 C 602.618 603.498 602.618 603.712 602.705 604.082 L 602.618 605.656 L 602.88 605.792 C 603.154 607.905 603.064 610.048 602.618 612.13 C 601.704 615.047 601.335 623.28 601.335 623.28 C 601.335 623.28 594.044 669.824 597.505 679.175 C 600.965 688.527 603.891 698.773 603.891 698.773 C 603.891 698.773 607.537 710.438 604.066 712.382 C 600.596 714.326 590.768 717.777 592.771 722.628 C 594.618 727.119 601.626 739.153 602.667 740.913 L 602.579 741.885 L 601.15 757.37 C 601.382 759.414 601.936 761.41 602.793 763.28 C 604.358 766.663 607.391 770.153 613.185 769.774 C 614.157 769.706 615.275 769.599 616.373 769.453 C 626.959 768.024 639.985 763.3 639.985 763.3 C 639.31 762.872 638.692 762.359 638.148 761.774 C 637.097 760.755 636.51 759.349 636.524 757.885 C 636.68 755.056 631.401 741.632 630.079 738.317 L 629.778 737.578 C 629.778 737.578 641.812 724.99 639.81 713.85 C 639.81 713.85 626.492 706.073 630.876 701.796 C 635.261 697.519 643.096 685.27 643.096 685.27 C 643.096 685.27 643.455 639.436 643.096 632.603 C 642.721 627.849 642.947 623.068 643.766 618.371 C 643.912 617.671 644.087 616.981 644.272 616.291 C 650.341 617.207 656.469 617.671 662.605 617.681 C 664.848 617.681 667.116 617.635 669.41 617.545 C 669.41 618.193 669.439 618.893 669.498 619.645 C 670.003 630.999 670.946 650.917 671.714 658.314 C 672.803 668.91 678.82 697.499 678.82 697.499 C 678.82 697.499 667.339 704.858 680.822 723.026 C 680.822 723.026 680.822 729.597 679.928 730.56 C 678.973 733.677 678.204 736.848 677.624 740.057 C 677.06 743.469 676.827 746.939 677.741 748.728 C 679.928 753.025 693.051 752.675 693.051 752.675 C 693.157 752.65 693.264 752.634 693.372 752.626 C 698.376 752.097 703.383 753.604 707.263 756.806 C 712.25 760.811 731.167 759.061 741.422 757.778 C 745.437 757.263 748.12 756.806 748.12 756.806 C 748.249 756.351 748.296 755.878 748.256 755.406 C 748.149 752.889 746.176 747.367 732.8 742.439 C 732.8 742.439 720.221 733.982 720.396 726.613 L 720.114 726.613 L 718.666 726.613 C 719.579 726.584 720.221 726.584 720.221 726.584 C 720.221 726.584 715.293 708.61 717.305 707.142 C 719.317 705.674 713.29 685.756 713.29 685.756 C 713.29 685.756 709.839 652.317 709.645 649.984 C 709.658 647.973 709.965 645.975 710.558 644.054 L 709.645 625.71 C 709.645 625.71 709.47 619.616 709.645 617.632 C 709.626 615.911 709.489 614.193 709.236 612.49 C 709.149 611.81 709.061 611.1 708.964 610.4 C 713.679 609.204 716.741 608.106 716.741 608.106 L 716.197 544.288 C 720.202 536.512 720.94 519.442 720.921 507.349 C 720.921 499.572 720.571 493.818 720.571 493.818 L 726.044 484.884 C 726.044 484.884 727.308 474.191 725.305 471.849 C 724.42 470.789 724.819 469.691 725.548 468.786 C 725.932 468.473 726.338 468.187 726.763 467.931 C 726.716 467.863 726.674 467.792 726.637 467.717 C 727.02 467.398 727.426 467.109 727.852 466.852 C 727.852 466.852 725.908 463.839 727.648 462.565 C 729.281 463.673 730.739 464.558 731.847 465.19 C 731.769 465.899 731.692 466.308 731.692 466.308 L 732.158 465.336 C 733.228 465.938 733.879 466.308 733.879 466.308 C 733.879 466.308 742.453 449.228 742.268 446.72 C 742.083 444.212 748.1 433.597 748.1 433.597 C 748.1 433.597 748.83 428.017 752.115 425.684 C 755.401 423.351 754.662 406.447 754.662 406.447 C 754.662 406.447 755.576 397.639 757.763 394.052 C 759.95 390.465 755.809 385.586 755.809 385.586 Z M 591.76 378.091 L 591.925 382.164 C 590.953 380.599 590.253 379.481 590.253 379.481 L 591.76 378.091 Z" fill="url(#b7415561-023b-44da-badb-9b3453976a8a-131)"/>
  <path d="M 734.384 458.92 L 732.285 467.863 C 732.285 467.863 715.468 459.26 712.444 448.373 C 709.421 437.485 717.509 433.334 717.509 433.334 L 733.189 439.964 L 734.384 458.92 Z" fill="#fff"/>
  <path d="M 734.384 458.92 L 732.285 467.863 C 732.285 467.863 715.468 459.26 712.444 448.373 C 709.421 437.485 717.509 433.334 717.509 433.334 L 733.189 439.964 L 734.384 458.92 Z" opacity="0.1"/>
  <path d="M 640.004 763.29 C 640.004 763.29 624.451 769.006 613.758 769.725 C 608.081 770.104 605.097 766.624 603.561 763.271 C 602.727 761.421 602.182 759.454 601.947 757.438 L 603.357 742.03 L 604.096 733.836 L 626.813 727.925 L 630.031 737.773 L 630.332 738.511 C 631.615 741.807 636.806 755.163 636.651 757.953 C 636.625 759.411 637.198 760.816 638.235 761.842 C 638.762 762.398 639.356 762.885 640.004 763.29 Z" fill="#fff"/>
  <path d="M 746.195 755.455 C 746.236 755.926 746.189 756.401 746.059 756.855 C 746.059 756.855 712.794 762.396 705.99 756.855 C 702.123 753.582 697.055 752.09 692.03 752.743 C 692.03 752.743 679.16 753.093 677.012 748.854 C 676.117 747.076 676.351 743.625 676.905 740.232 C 677.472 737.041 678.224 733.886 679.16 730.783 L 679.675 730.375 L 682.737 727.916 L 718.588 726.856 L 718.86 726.856 C 718.685 734.186 731.021 742.594 731.021 742.594 C 744.154 747.455 746.088 752.947 746.195 755.455 Z" fill="#fff"/>
  <path d="M 746.205 755.455 C 746.24 755.926 746.19 756.401 746.059 756.855 C 746.059 756.855 712.794 762.396 705.999 756.855 C 702.129 753.58 697.058 752.087 692.03 752.743 C 692.03 752.743 679.15 753.093 677.002 748.854 C 676.117 747.076 676.341 743.625 676.895 740.222 C 681.853 740.718 689.678 741.953 692.75 744.908 C 697.396 749.379 705.27 753.851 710.092 754.211 C 713.902 754.444 736.562 755.163 746.205 755.455 Z" opacity="0.1"/>
  <path d="M 640.004 763.29 C 640.004 763.29 624.451 769.006 613.758 769.725 C 608.081 770.104 605.097 766.624 603.561 763.271 C 607.527 764.602 613.019 765.992 615.906 764.719 C 619.328 763.193 631.46 762.221 638.264 761.803 C 638.778 762.372 639.363 762.872 640.004 763.29 Z" opacity="0.1"/>
  <path d="M 663.082 302.628 C 650.25 297.641 633.744 281.164 637.866 273.465 C 638.778 271.521 639.321 269.425 639.47 267.283 C 639.735 264.374 639.774 261.449 639.586 258.534 C 639.298 253.757 638.723 249.002 637.866 244.293 C 637.866 244.293 677.926 245.197 675.592 251.097 C 674.912 252.837 674.795 255.841 674.99 259.195 C 675.184 262.549 675.661 266.369 676.166 269.586 C 676.856 273.99 677.566 277.363 677.566 277.363 C 677.566 277.363 675.106 280.795 673.677 280.979 C 672.249 281.164 681.493 309.773 663.082 302.628 Z" style="fill: rgb(255, 162, 162);"/>
  <path d="M 630.293 738.463 L 629.992 738.793 C 618.016 724.309 603.532 742.371 603.532 742.371 L 603.318 741.982 L 604.057 733.787 L 626.774 727.877 L 629.992 737.724 L 630.293 738.463 Z" opacity="0.1"/>
  <path d="M 718.88 727.877 C 718.88 727.877 710.131 727.702 705.465 731.824 C 700.799 735.945 678.246 732.708 679.218 731.824 C 679.502 731.374 679.675 730.865 679.724 730.336 L 682.786 727.877 L 718.637 726.817 C 718.773 727.498 718.88 727.877 718.88 727.877 Z" opacity="0.1"/>
  <path d="M 645.195 614.133 C 644.546 615.745 644.051 617.415 643.718 619.12 C 642.908 623.792 642.682 628.546 643.047 633.273 C 643.407 640.078 643.047 685.679 643.047 685.679 C 643.047 685.679 635.358 697.839 631.061 702.126 C 626.765 706.413 639.81 714.112 639.81 714.112 C 641.754 725.204 629.972 737.724 629.972 737.724 C 617.996 723.24 603.512 741.292 603.512 741.292 C 603.512 741.292 595.638 727.682 593.675 722.822 C 591.711 717.962 601.364 714.608 604.757 712.625 C 608.149 710.642 604.582 699.016 604.582 699.016 C 604.582 699.016 601.724 688.818 598.321 679.516 C 594.919 670.213 602.074 623.912 602.074 623.912 C 602.074 623.912 602.443 615.679 603.328 612.811 C 603.77 610.741 603.858 608.611 603.59 606.512 C 603.532 605.802 603.464 605.219 603.415 604.811 C 603.366 604.402 603.328 604.227 603.328 604.227 L 603.464 603.994 L 608.324 594.934 C 608.324 594.934 647.528 608.427 645.195 614.133 Z" fill="#a6cbf8"/>
  <path d="M 718.88 726.808 C 718.88 726.808 710.131 726.623 705.465 730.696 C 700.799 734.769 678.246 731.59 679.218 730.696 C 680.19 729.802 680.103 723.191 680.103 723.191 C 666.873 705.12 678.159 697.791 678.159 697.791 C 678.159 697.791 672.258 669.357 671.189 658.81 C 670.44 651.451 669.517 631.592 669.021 620.345 C 668.807 615.484 668.681 612.13 668.681 612.13 L 679.393 610.002 L 680.783 609.729 L 706.855 604.49 C 706.855 604.49 707.574 609.35 708.06 613.326 C 708.306 615.023 708.439 616.734 708.459 618.449 C 708.294 620.393 708.459 626.488 708.459 626.488 L 709.353 644.725 C 708.777 646.639 708.475 648.625 708.459 650.625 C 708.643 652.958 712.036 686.213 712.036 686.213 C 712.036 686.213 717.937 706.063 715.924 707.492 C 713.912 708.921 718.88 726.808 718.88 726.808 Z" fill="#a6cbf8"/>
  <path d="M 675.592 251.126 C 674.912 252.867 674.795 255.87 674.99 259.224 C 664.04 265.818 650.283 265.561 639.586 258.563 C 639.298 253.786 638.723 249.031 637.866 244.322 C 637.866 244.322 677.926 245.226 675.592 251.126 Z" opacity="0.1"/>
  <path d="M 691.058 229.663 C 691.366 255.263 663.845 271.595 641.522 259.061 C 631.161 253.244 624.691 242.341 624.548 230.46 C 624.548 230.188 624.548 229.935 624.548 229.663 C 624.548 204.056 652.269 188.051 674.445 200.855 C 684.738 206.797 691.078 217.778 691.078 229.663 L 691.058 229.663 Z" style="fill: rgb(255, 162, 162);"/>
  <path d="M 663.082 302.628 C 650.25 297.641 633.744 281.164 637.866 273.465 C 638.778 271.521 639.321 269.425 639.47 267.283 L 657.035 281.728 L 667.903 290.642 L 676.166 269.616 C 676.856 274.019 677.566 277.392 677.566 277.392 C 677.566 277.392 675.106 280.824 673.677 281.008 C 672.249 281.193 681.493 309.773 663.082 302.628 Z" opacity="0.1"/>
  <polygon points="708.507 366.465 693.839 612.889 674.708 614.143 625.162 471.256 633.287 301.617 635.009 265.776 657.035 283.866 667.903 292.78 676.409 271.132 692.225 284.916 708.507 366.465" fill="#a6cbf8"/>
  <path d="M 645.195 614.133 C 644.546 615.745 644.051 617.415 643.718 619.12 C 629.785 616.974 616.251 612.751 603.571 606.59 L 603.308 606.453 L 603.396 604.888 L 603.396 604.072 L 608.256 595.012 C 608.256 595.012 647.528 608.427 645.195 614.133 Z" opacity="0.1"/>
  <path d="M 679.714 619.159 C 676.156 619.767 672.567 620.179 668.963 620.393 C 668.749 615.533 668.623 612.179 668.623 612.179 L 679.393 610.002 L 679.714 619.159 Z" opacity="0.1"/>
  <path d="M 708.099 613.326 C 701.188 615.124 690.504 617.146 680.958 615.883 L 680.822 609.729 L 706.894 604.49 C 706.894 604.49 707.584 609.311 708.099 613.326 Z" opacity="0.1"/>
  <path d="M 680.783 617.01 C 640.928 623.815 604.426 604.305 604.426 604.305 L 604.776 597.695 C 604.776 597.695 605.68 522.757 603.172 517.012 C 600.664 511.267 598.71 482.172 600.129 477.73 C 601.549 473.287 594.948 406.213 594.948 406.213 L 593.879 378.995 L 554.713 363.082 L 572.211 326.599 C 574.574 321.485 576.607 316.225 578.296 310.852 C 581.339 301.374 595.463 292.071 595.463 292.071 C 595.463 292.071 609.947 282.778 615.673 283.128 C 621.399 283.478 628.903 274.904 628.903 274.904 C 634.444 260.779 639.46 267.127 639.46 267.127 C 639.46 267.808 639.46 267.127 639.188 269.217 C 637.244 284.722 670.625 333.715 671.101 334.59 L 674.319 412.026 L 677.537 510.022 L 680.783 617.01 Z" opacity="0.1"/>
  <path d="M 679.714 617.01 C 639.859 623.815 603.347 604.305 603.347 604.305 L 603.707 597.695 C 603.707 597.695 604.601 522.757 602.093 517.012 C 599.585 511.267 597.631 482.143 599.06 477.662 C 600.489 473.18 593.85 406.174 593.85 406.174 L 592.771 378.956 L 553.615 363.043 L 571.113 326.56 C 573.47 321.447 575.503 316.191 577.198 310.822 C 580.24 301.374 594.414 292.061 594.414 292.061 C 594.414 292.061 608.898 282.768 614.613 283.118 C 620.329 283.468 627.873 274.904 627.873 274.904 C 633.423 260.779 639.538 267.127 639.538 267.127 C 639.538 267.808 638.955 268.099 639.266 269.217 C 643.543 284.255 669.634 333.715 670.11 334.59 L 673.328 412.026 L 676.477 510.071 L 679.714 617.01 Z" fill="#fff"/>
  <path d="M 668.973 336.777 C 664.686 334.988 641.978 309.063 641.978 309.063 L 641.978 303.162 C 641.151 301.218 636.233 302.404 632.257 303.765 L 633.968 267.924 L 635.912 269.538 C 640.16 284.566 668.506 335.912 668.973 336.777 Z" opacity="0.1"/>
  <path d="M 670.052 334.638 C 665.755 332.84 643.047 306.924 643.047 306.924 L 643.047 301.014 C 642.221 299.07 637.312 300.256 633.326 301.617 L 635.008 265.815 L 636.952 267.419 C 641.239 282.428 669.575 333.764 670.052 334.638 Z" fill="#fff"/>
  <path d="M 604.426 463.926 C 604.961 463.926 632.14 461.068 632.14 461.068 C 632.14 461.068 648.598 493.439 647.519 501.303 C 646.44 509.167 644.486 516.147 637.866 514.912 C 631.246 513.677 602.239 515.884 602.239 515.884 L 604.426 463.926 Z" opacity="0.1"/>
  <path d="M 603.347 461.778 C 603.891 461.778 631.071 458.92 631.071 458.92 C 631.071 458.92 647.519 491.339 646.449 499.116 C 645.38 506.892 643.407 513.959 636.797 512.725 C 630.186 511.49 601.16 513.697 601.16 513.697 L 603.347 461.778 Z" fill="#fff"/>
  <path d="M 623.829 446.623 C 623.829 446.623 648.773 460.038 649.307 464.12 C 649.842 468.203 636.612 462.332 633.754 461.612 C 631.872 461.165 629.958 460.867 628.028 460.718 L 608.966 461.233 L 623.829 446.623 Z" style="fill: rgb(255, 162, 162);"/>
  <circle cx="662.003" cy="335.824" r="2.625" opacity="0.1"/>
  <circle cx="662.003" cy="334.755" r="2.625" fill="#3f3d56"/>
  <circle cx="666.834" cy="449.442" r="2.625" opacity="0.1"/>
  <circle cx="666.834" cy="448.363" r="2.625" fill="#3f3d56"/>
  <circle cx="664.627" cy="392.633" r="2.625" opacity="0.1"/>
  <circle cx="664.627" cy="391.564" r="2.625" fill="#3f3d56"/>
  <path d="M 725.13 460.174 C 725.13 460.174 726.919 462.857 725.13 464.062 C 723.341 465.268 725.305 468.359 725.305 468.359 C 725.305 468.359 720.843 470.964 722.807 473.326 C 724.77 475.688 723.526 486.294 723.526 486.294 L 718.16 495.227 C 718.16 495.227 718.481 500.953 718.5 508.691 C 718.5 520.764 717.791 537.737 713.864 545.474 L 714.388 608.961 C 714.388 608.961 695.598 615.834 679.87 613.734 L 677.537 511.86 C 677.537 511.86 680.939 454.089 682.193 443.007 C 682.928 437.254 683.226 431.453 683.087 425.655 C 683.087 425.655 682.553 408.313 680.754 400.274 C 680.754 400.274 678.81 365.395 678.616 355.742 C 678.528 351.125 678.771 337.652 679.043 324.84 C 679.345 310.832 679.685 297.621 679.685 297.621 L 676.137 269.538 C 676.137 269.538 679.685 269.188 680.754 270.607 C 681.234 271.054 681.755 271.455 682.31 271.803 C 688.443 275.944 710.082 288.678 710.082 288.678 C 710.082 288.678 722.058 293.441 724.926 300.265 C 727.794 307.09 729.786 311.931 731.176 313.875 C 732.567 315.819 733.325 324.957 733.325 324.957 C 733.325 324.957 737.446 341.774 740.664 344.622 C 743.882 347.47 746.195 365.551 746.195 365.551 L 717.762 387.909 C 717.762 387.909 715.263 425.101 714.729 426.54 C 714.194 427.978 725.13 460.174 725.13 460.174 Z" fill="#fff"/>
  <path d="M 726.209 460.174 C 726.209 460.174 727.988 462.857 726.209 464.062 C 724.43 465.268 726.374 468.359 726.374 468.359 C 726.374 468.359 721.912 470.964 723.876 473.326 C 725.84 475.688 724.595 486.294 724.595 486.294 L 719.249 495.227 C 719.249 495.227 719.57 500.953 719.599 508.691 C 719.599 520.764 718.889 537.737 714.962 545.474 L 715.497 608.961 C 715.497 608.961 696.706 615.834 680.978 613.734 L 678.655 511.86 C 678.655 511.86 682.047 454.089 683.311 443.007 C 684.046 437.254 684.342 431.453 684.195 425.655 C 684.195 425.655 683.661 408.313 681.872 400.274 C 681.872 400.274 679.928 365.395 679.724 355.742 C 679.636 351.125 679.879 337.652 680.152 324.84 C 680.453 310.832 680.793 297.621 680.793 297.621 L 676.108 269.159 C 676.108 269.159 680.793 269.159 681.872 270.607 C 682.348 271.06 682.869 271.461 683.428 271.803 C 689.552 275.944 711.19 288.678 711.19 288.678 C 711.19 288.678 723.137 293.441 726.054 300.265 C 728.97 307.09 730.914 311.931 732.304 313.875 C 733.694 315.819 734.452 324.957 734.452 324.957 C 734.452 324.957 738.574 341.774 741.792 344.622 C 745.009 347.47 747.333 365.551 747.333 365.551 L 718.899 387.909 C 718.899 387.909 716.401 425.101 715.856 426.54 C 715.312 427.978 726.209 460.174 726.209 460.174 Z" fill="#fff"/>
  <path d="M 692.157 305.874 L 694.733 313.36 L 681.211 326.969 C 681.513 312.961 681.853 299.75 681.853 299.75 L 677.167 271.297 C 677.167 271.297 681.853 271.297 682.932 272.746 C 683.407 273.199 683.928 273.599 684.487 273.941 L 695.977 307.08 L 692.157 305.874 Z" opacity="0.1"/>
  <path d="M 691.058 303.726 L 693.634 311.201 L 680.122 324.811 C 680.414 310.803 680.764 297.592 680.764 297.592 L 676.069 269.13 C 676.069 269.13 680.764 269.13 681.833 270.578 C 682.311 271.028 682.832 271.429 683.389 271.774 L 694.947 304.941 L 691.058 303.726 Z" fill="#fff"/>
  <path d="M 691.058 229.663 C 691.062 233.165 690.511 236.646 689.425 239.977 C 689.056 240.039 688.677 239.947 688.375 239.724 C 688.113 230.975 683.816 222.751 678.518 215.762 C 677.029 213.654 675.226 211.785 673.172 210.221 C 671.094 208.661 668.509 207.93 665.92 208.17 C 663.004 208.569 660.428 210.552 657.483 210.804 C 653.594 211.125 650.114 208.432 646.255 208.306 C 643.081 208.332 640.072 209.729 638.002 212.136 C 635.973 214.529 634.466 217.321 633.579 220.331 C 632.051 224.899 631.219 229.67 631.11 234.484 C 631.061 237.206 630.799 240.618 628.271 241.61 C 628.658 237.566 627.328 233.544 624.607 230.528 L 624.548 230.46 C 624.548 230.188 624.548 229.935 624.548 229.663 C 624.548 204.056 652.269 188.051 674.445 200.855 C 684.738 206.797 691.078 217.778 691.078 229.663 L 691.058 229.663 Z" opacity="0.1"/>
  <path d="M 671.617 176.849 C 666.566 174.474 660.821 174.023 655.461 175.586 C 652.768 176.383 650.231 177.676 647.499 178.327 C 641.667 179.736 634.862 178.21 629.856 181.622 C 627.076 183.566 625.404 186.638 623.848 189.632 L 619.96 197.03 C 617.841 201.083 615.702 205.205 614.818 209.667 C 613.933 214.129 614.468 219.125 617.296 222.722 C 619.348 225.327 622.4 226.97 624.636 229.43 C 627.352 232.46 628.677 236.489 628.291 240.54 C 630.818 239.568 631.071 236.137 631.129 233.415 C 631.239 228.6 632.071 223.829 633.598 219.261 C 634.486 216.252 635.993 213.46 638.021 211.067 C 640.091 208.657 643.099 207.257 646.274 207.227 C 650.163 207.363 653.652 210.056 657.502 209.725 C 660.418 209.482 663.004 207.499 665.94 207.101 C 668.528 206.856 671.115 207.588 673.191 209.152 C 675.247 210.711 677.048 212.58 678.528 214.693 C 683.836 221.692 688.142 229.877 688.395 238.655 C 689.493 239.452 691.078 238.402 691.622 237.158 C 692.167 235.913 692.186 234.455 692.876 233.269 C 693.673 231.899 695.199 231.16 696.395 230.129 C 699.428 227.515 700.186 223.111 700.07 219.116 C 699.953 215.12 699.175 211.067 699.934 207.14 C 700.39 204.739 701.421 202.474 701.985 200.092 C 702.548 197.71 702.617 195.037 701.285 192.986 C 699.341 189.982 695.248 189.38 691.681 189.098 C 687.627 188.748 684.001 189.195 681.415 185.783 C 680.199 184.005 678.833 182.333 677.333 180.786 C 676.798 180.271 671.617 177.063 671.617 176.849 Z" style="fill: rgb(47, 46, 65);"/>
  <path d="M 565.931 381.843 L 555.783 363.072 L 552.565 392.04 C 552.565 392.04 554.354 404.911 553.994 406.884 C 553.634 408.857 561.324 426.549 561.324 426.549 C 561.324 426.549 586.724 471.8 597.096 474.123 L 632.092 449.082 L 622.798 437.281 C 622.798 437.281 619.581 436.027 618.774 437.281 C 618.774 437.281 601.51 407.594 599.731 405.455 C 597.952 403.316 598.292 399.01 598.292 399.01 C 598.292 399.01 595.609 396.152 596.504 393.469 C 597.398 390.786 591.371 381.493 591.371 381.493 L 596.912 376.312 L 565.931 381.843 Z" opacity="0.1"/>
  <path d="M 556.317 360.924 L 553.634 363.072 L 550.417 392.04 C 550.417 392.04 552.205 404.911 551.846 406.884 C 551.486 408.857 559.185 426.549 559.185 426.549 C 559.185 426.549 584.576 471.8 594.948 474.123 L 630.002 449.082 L 620.699 437.281 C 620.699 437.281 617.481 436.027 616.674 437.281 C 616.674 437.281 599.42 407.594 597.631 405.455 C 595.842 403.316 596.202 399.01 596.202 399.01 C 596.202 399.01 593.519 396.152 594.414 393.469 C 595.308 390.786 589.223 381.493 589.223 381.493 L 594.763 376.312 L 556.317 360.924 Z" fill="#fff"/>
  <path d="M 722.807 474.444 C 724.751 476.806 723.526 487.421 723.526 487.421 L 718.16 496.297 C 718.16 496.297 718.481 502.032 718.5 509.77 L 709.479 512.589 C 705.96 513.686 702.407 510.987 702.519 507.301 L 704.084 457.141 L 725.13 465.18 C 723.341 466.424 725.305 469.477 725.305 469.477 C 725.305 469.477 720.843 472.082 722.807 474.444 Z" opacity="0.1"/>
  <path d="M 723.876 473.375 C 725.82 475.727 724.595 486.342 724.595 486.342 L 719.249 495.227 C 719.249 495.227 719.57 500.953 719.599 508.691 L 710.413 511.558 C 706.973 512.637 703.497 510 703.608 506.397 L 705.173 456.062 L 726.209 464.12 C 724.411 465.365 726.374 468.417 726.374 468.417 C 726.374 468.417 721.912 471.013 723.876 473.375 Z" fill="#fff"/>
  <path d="M 730.856 449.442 C 730.856 449.442 729.427 458.57 725.849 459.105 C 722.272 459.639 720.668 473.871 717.101 473.375 C 713.533 472.879 715.895 460.135 716.022 457.666 C 716.148 455.197 712.133 444.97 715.127 442.647 C 718.121 440.324 727.648 442.647 727.648 442.647 L 730.856 449.442 Z" style="fill: rgb(255, 162, 162);"/>
  <path d="M 738.418 379.16 L 745.155 365.551 C 745.155 365.551 747.848 375.923 747.848 381.464 C 747.848 387.005 751.6 387.549 751.6 387.549 C 751.6 387.549 755.712 392.41 753.544 395.958 C 751.376 399.506 750.511 408.294 750.511 408.294 C 750.511 408.294 751.221 425.101 748.003 427.424 C 744.786 429.747 744.066 435.298 744.066 435.298 C 744.066 435.298 738.166 445.845 738.35 448.353 C 738.535 450.861 730.127 467.844 730.127 467.844 C 730.127 467.844 734.239 446.74 710.277 437.621 C 710.277 437.621 710.092 430.467 711.881 428.503 C 713.669 426.54 716.459 425.587 714.709 415.711 C 712.96 405.834 714.204 393.926 714.204 391.544 C 714.204 389.163 719.57 374.319 719.57 374.319 L 738.418 379.16 Z" opacity="0.1"/>
  <path d="M 741.413 363.607 L 747.303 365.551 C 747.303 365.551 749.996 375.923 749.996 381.464 C 749.996 387.005 753.748 387.549 753.748 387.549 C 753.748 387.549 757.86 392.41 755.692 395.958 C 753.525 399.506 752.65 408.294 752.65 408.294 C 752.65 408.294 753.369 425.101 750.152 427.424 C 746.934 429.747 746.263 435.298 746.263 435.298 C 746.263 435.298 740.363 445.845 740.547 448.353 C 740.732 450.861 732.314 467.844 732.314 467.844 C 732.314 467.844 736.426 446.74 712.464 437.621 C 712.464 437.621 712.289 430.467 714.077 428.503 C 715.866 426.54 718.656 425.587 716.906 415.711 C 715.156 405.834 716.401 393.926 716.401 391.544 C 716.401 389.163 721.767 374.319 721.767 374.319 L 741.413 363.607 Z" fill="#fff"/>
  <path d="M 611.27 716.348 C 611.27 716.348 620.66 710.447 626.823 714.734 C 632.986 719.021 611.27 716.348 611.27 716.348 Z" opacity="0.1"/>
  <path d="M 684.254 698.102 C 684.254 698.102 692.565 697.033 699.545 704.547 C 706.524 712.061 684.254 698.102 684.254 698.102 Z" opacity="0.1"/>
  <g opacity="0.1" transform="matrix(0.972087, 0, 0, 0.972087, -184.840088, -67.066803)">
    <path d="M922.49,322.09c-1.23,1.07-2.81,1.82-3.63,3.23-.7,1.21-.72,2.71-1.28,4s-2.19,2.36-3.33,1.54c-.26-9-4.69-17.45-10.14-24.65a25.57,25.57,0,0,0-5.49-5.69,10.75,10.75,0,0,0-7.47-2.12c-3,.41-5.64,2.45-8.67,2.71-4,.33-7.59-2.44-11.56-2.57a11.28,11.28,0,0,0-8.48,3.94,23.16,23.16,0,0,0-4.55,8.43,49.44,49.44,0,0,0-2.54,14.56c-.06,2.79-.32,6.27-2.9,7.31a13.84,13.84,0,0,1,0,2.23c2.61-1,2.87-4.53,2.93-7.33a49.44,49.44,0,0,1,2.54-14.56,23.16,23.16,0,0,1,4.55-8.43,11.32,11.32,0,0,1,8.48-3.95c4,.14,7.6,2.91,11.56,2.57,3-.25,5.66-2.29,8.67-2.7a10.75,10.75,0,0,1,7.47,2.11,25.62,25.62,0,0,1,5.49,5.7c5.45,7.2,9.88,15.62,10.14,24.65,1.14.82,2.77-.26,3.33-1.54s.58-2.78,1.28-4c.82-1.41,2.4-2.17,3.63-3.23,3.12-2.69,3.9-7.22,3.78-11.33,0-.13,0-.25,0-.38C926.1,316.17,925.15,319.8,922.49,322.09Z" transform="translate(-15.95 -18.56)"/>
    <path d="M848.66,321.39c-2.29-2.53-5.43-4.23-7.54-6.91a14.51,14.51,0,0,1-2.91-8.18,15.41,15.41,0,0,0,2.91,10.39c2.11,2.68,5.25,4.37,7.54,6.9a15,15,0,0,1,3.78,8.92A15,15,0,0,0,848.66,321.39Z" transform="translate(-15.95 -18.56)"/>
    <path d="M928.24,291.19c-.59,2.45-1.64,4.78-2.12,7.25a23.15,23.15,0,0,0-.31,5.06,19.41,19.41,0,0,1,.31-2.85c.48-2.47,1.53-4.8,2.12-7.25a12.56,12.56,0,0,0,.33-4.14A13.9,13.9,0,0,1,928.24,291.19Z" transform="translate(-15.95 -18.56)"/>
  </g>
  <path d="M 177.9 473.426 C 178.105 473.678 178.294 473.962 178.491 474.214 L 182.66 474.214 L 182.66 479.596 L 184.008 481.172 L 184.008 474.182 L 190.312 474.182 L 190.312 485.483 L 187.719 485.483 C 187.972 485.743 188.216 486.019 188.507 486.271 L 236.445 486.271 L 236.445 473.426 L 177.9 473.426 Z M 197.964 485.483 L 191.66 485.483 L 191.66 474.23 L 197.964 474.23 L 197.964 485.483 Z M 205.6 485.483 L 199.296 485.483 L 199.296 474.23 L 205.6 474.23 L 205.6 485.483 Z M 213.237 485.483 L 206.932 485.483 L 206.932 474.23 L 213.237 474.23 L 213.237 485.483 Z M 220.865 485.483 L 214.56 485.483 L 214.56 474.23 L 220.865 474.23 L 220.865 485.483 Z M 228.493 485.483 L 222.189 485.483 L 222.189 474.23 L 228.493 474.23 L 228.493 485.483 Z M 236.129 485.483 L 229.825 485.483 L 229.825 474.23 L 236.129 474.23 L 236.129 485.483 Z" fill="#a6cbf8" opacity="0.1"/>
  <path d="M 219.974 510.748 C 220.699 511.158 221.432 511.536 222.165 511.938 L 222.165 511.544 L 228.47 511.544 L 228.47 515.098 C 228.927 515.295 229.36 515.508 229.809 515.713 L 229.809 511.544 L 236.114 511.544 L 236.114 518.368 C 236.234 518.422 236.357 518.467 236.484 518.502 L 236.484 510.748 L 219.974 510.748 Z" fill="#a6cbf8" opacity="0.1"/>
  <ellipse cx="200.864" cy="700.456" rx="76.788" ry="12.333" fill="#a6cbf8" opacity="0.1"/>
  <rect x="198.398" y="464.19" width="4.941" height="111.249" fill="#535461"/>
  <path d="M 234.396 575.108 L 234.081 580.12 L 233.647 587.213 L 233.466 590.16 L 233.025 597.253 L 232.835 600.2 L 232.402 607.292 L 227.414 687.729 C 226.972 694.913 221.017 700.512 213.82 700.511 L 187.916 700.511 C 180.698 700.514 174.732 694.881 174.323 687.674 L 169.334 607.237 L 168.901 600.145 L 168.719 597.197 L 168.27 590.105 L 168.089 587.158 L 167.656 580.065 L 167.34 575.053 C 167.11 570.999 170.325 567.579 174.386 567.559 L 227.358 567.559 C 231.44 567.582 234.659 571.036 234.396 575.108 Z" fill="#3f3d56"/>
  <polygon points="234.081 580.112 233.639 587.189 168.089 587.189 167.648 580.112 234.081 580.112" fill="#9d9cb5"/>
  <polygon points="233.458 590.136 233.025 597.213 168.712 597.213 168.27 590.136 233.458 590.136" fill="#9d9cb5"/>
  <polygon points="232.835 600.168 232.402 607.237 169.334 607.237 168.893 600.168 232.835 600.168" fill="#9d9cb5"/>
  <path d="M 160.138 505.894 C 188.917 526.714 200.904 559.276 200.904 559.276 C 200.904 559.276 166.229 558.086 137.442 537.266 C 108.654 516.446 96.652 483.907 96.652 483.907 C 96.652 483.907 131.326 485.073 160.138 505.894 Z" fill="#a6cbf8"/>
  <path d="M 96.652 483.907 C 96.652 483.907 132.642 503.884 144.187 520.425 C 155.732 536.967 200.872 559.292 200.872 559.292" fill="none" stroke="#535461" stroke-miterlimit="10" stroke-width="2"/>
  <path d="M 178.68 463.953 C 194.347 475.278 200.872 493.001 200.872 493.001 C 200.872 493.001 181.959 492.355 166.332 481.031 C 150.705 469.706 144.14 451.975 144.14 451.975 C 144.14 451.975 163.022 452.621 178.68 463.953 Z" fill="#a6cbf8"/>
  <path d="M 144.14 451.975 C 144.14 451.975 163.731 462.85 170.02 471.85 C 176.308 480.849 200.872 493.001 200.872 493.001" fill="none" stroke="#535461" stroke-miterlimit="10" stroke-width="2"/>
  <path d="M 223.631 492.103 C 205.64 511.875 201.833 537.715 201.833 537.715 C 201.833 537.715 227.201 531.49 245.176 511.709 C 263.152 491.929 266.974 466.097 266.974 466.097 C 266.974 466.097 241.622 472.33 223.631 492.103 Z" fill="#a6cbf8"/>
  <path d="M 266.99 466.105 C 266.99 466.105 243.553 486.374 237.595 500.338 C 231.638 514.302 201.833 537.715 201.833 537.715" fill="none" stroke="#535461" stroke-miterlimit="10" stroke-width="2"/>
</svg>